<svg width="48" height="48" viewBox="0 0 48 48" fill="none" xmlns="http://www.w3.org/2000/svg">
<path d="M47.2109 9.38281L38.6172 0.789062C38.4682 0.64516 38.2696 0.564042 38.0625 0.5625H18.5313C17.9102 0.564355 17.3152 0.81188 16.876 1.25102C16.4369 1.69015 16.1894 2.28522 16.1875 2.90625V7.63281C11.9793 7.83006 8.0088 9.64059 5.10048 12.6884C2.19215 15.7363 0.569504 19.7872 0.569504 24C0.569504 28.2128 2.19215 32.2637 5.10048 35.3116C8.0088 38.3594 11.9793 40.1699 16.1875 40.3672V45.0938C16.1894 45.7148 16.4369 46.3098 16.876 46.749C17.3152 47.1881 17.9102 47.4356 18.5313 47.4375H45.0937C45.7148 47.4356 46.3098 47.1881 46.749 46.749C47.1881 46.3098 47.4356 45.7148 47.4375 45.0938V9.9375C47.436 9.73038 47.3548 9.53178 47.2109 9.38281ZM38.8437 3.22656L44.7734 9.15625H39.625C39.4178 9.15625 39.2191 9.07394 39.0726 8.92743C38.9261 8.78091 38.8437 8.5822 38.8437 8.375V3.22656ZM2.12501 24C2.1301 20.2002 3.59042 16.5467 6.20588 13.7903C8.82133 11.0339 12.3932 9.38402 16.1875 9.17969V23.6797L5.95313 33.9141C3.48947 31.1999 2.12477 27.6656 2.12501 24ZM7.0547 35.0156L17.2891 24.7812H31.7891C31.6468 27.5806 30.7132 30.2822 29.0968 32.5722C27.4805 34.8622 25.2476 36.6467 22.6576 37.7184C20.0675 38.7901 17.2266 39.105 14.4647 38.6266C11.7028 38.1482 9.13336 36.896 7.0547 35.0156ZM45.875 45.0938C45.875 45.3009 45.7927 45.4997 45.6462 45.6462C45.4997 45.7927 45.3009 45.875 45.0937 45.875H18.5313C18.3241 45.875 18.1253 45.7927 17.9788 45.6462C17.8323 45.4997 17.75 45.3009 17.75 45.0938V40.3672C21.9567 40.164 25.9245 38.3518 28.8327 35.3055C31.7409 32.2591 33.3671 28.2116 33.375 24C33.375 23.7928 33.2927 23.5941 33.1462 23.4476C32.9997 23.3011 32.8009 23.2188 32.5937 23.2188H17.75V2.90625C17.75 2.69905 17.8323 2.50034 17.9788 2.35382C18.1253 2.20731 18.3241 2.125 18.5313 2.125H37.2812V8.375C37.2831 8.99603 37.5306 9.5911 37.9698 10.0302C38.4089 10.4694 39.004 10.7169 39.625 10.7188H45.875V45.0938Z" fill="#525D7D"/>
<path d="M20 20.5V5.5C32.4 5.5 35.5 15.5 35.5 20.5H20Z" fill="#FFD15C"/>
<circle cx="37" cy="37" r="7" fill="#24B300"/>
<path d="M20.0938 4.46875C19.8865 4.46875 19.6878 4.55106 19.5413 4.69757C19.3948 4.84409 19.3125 5.0428 19.3125 5.25V20.875C19.3125 21.0822 19.3948 21.2809 19.5413 21.4274C19.6878 21.5739 19.8865 21.6562 20.0938 21.6562H35.7188C35.926 21.6562 36.1247 21.5739 36.2712 21.4274C36.4177 21.2809 36.5 21.0822 36.5 20.875C36.4952 16.5253 34.7652 12.355 31.6895 9.27928C28.6137 6.20354 24.4435 4.47351 20.0938 4.46875ZM20.875 20.0938V6.05469C24.5346 6.25119 27.9925 7.79338 30.5839 10.3848C33.1754 12.9763 34.7176 16.4341 34.9141 20.0938H20.875Z" fill="#525D7D"/>
<path d="M37.2813 30.25C35.8906 30.25 34.5312 30.6624 33.3749 31.435C32.2186 32.2076 31.3174 33.3057 30.7852 34.5905C30.2531 35.8753 30.1138 37.2891 30.3851 38.653C30.6564 40.0169 31.3261 41.2698 32.3094 42.2531C33.2928 43.2364 34.5456 43.9061 35.9095 44.1774C37.2735 44.4487 38.6872 44.3095 39.972 43.7773C41.2568 43.2451 42.3549 42.3439 43.1275 41.1876C43.9001 40.0313 44.3125 38.6719 44.3125 37.2813C44.3096 35.4173 43.5679 33.6306 42.2499 32.3126C40.9319 30.9946 39.1452 30.2529 37.2813 30.25ZM37.2813 42.75C36.1997 42.75 35.1423 42.4293 34.243 41.8284C33.3437 41.2274 32.6427 40.3733 32.2288 39.3741C31.8149 38.3748 31.7066 37.2752 31.9176 36.2144C32.1286 35.1535 32.6495 34.1791 33.4143 33.4143C34.1791 32.6494 35.1535 32.1286 36.2144 31.9176C37.2752 31.7066 38.3748 31.8149 39.3741 32.2288C40.3733 32.6427 41.2275 33.3436 41.8284 34.243C42.4293 35.1423 42.75 36.1996 42.75 37.2813C42.7484 38.7311 42.1717 40.1212 41.1464 41.1464C40.1212 42.1716 38.7312 42.7483 37.2813 42.75Z" fill="#525D7D"/>
<path d="M36.7798 37.7472L35.6789 36.5571L35 37.291L36.4404 38.848C36.5304 38.9453 36.6525 39 36.7798 39C36.9071 39 37.0292 38.9453 37.1193 38.848L40 35.7339L39.3211 35L36.7798 37.7472Z" fill="white"/>
<path d="M38.0625 13.8438H44.3125V15.4062H38.0625V13.8438Z" fill="#525D7D"/>
<path d="M38.0625 18.5312H44.3125V20.0938H38.0625V18.5312Z" fill="#525D7D"/>
<path d="M38.0625 23.2188H44.3125V24.7812H38.0625V23.2188Z" fill="#525D7D"/>
</svg>
