<svg width="56" height="56" viewBox="0 0 56 56" fill="none" xmlns="http://www.w3.org/2000/svg">
<g clip-path="url(#clip0)">
<path d="M30.2725 49.0578L24.6325 53.1866C24.5169 53.2713 24.3723 53.3066 24.2306 53.2847C24.0889 53.2627 23.9618 53.1854 23.8771 53.0698L17.0815 43.787C16.9969 43.6713 16.9616 43.5267 16.9835 43.3851C17.0054 43.2434 17.0827 43.1162 17.1984 43.0315L22.8384 38.9027C22.954 38.8181 23.0986 38.7828 23.2403 38.8047C23.382 38.8266 23.5091 38.9039 23.5938 39.0196L30.3894 48.3024C30.4741 48.418 30.5093 48.5626 30.4874 48.7043C30.4655 48.846 30.3882 48.9731 30.2725 49.0578ZM24.4279 51.9966L29.1978 48.5048L23.0408 40.0943L18.2731 43.5846L24.4279 51.9966Z" fill="#C3E5FE"/>
<path d="M40.6396 41.4686L34.9974 45.599C34.8818 45.6836 34.7372 45.7189 34.5955 45.697C34.4538 45.6751 34.3267 45.5978 34.242 45.4821L22.1145 28.9159C22.0298 28.8002 21.9946 28.6556 22.0165 28.514C22.0384 28.3723 22.1157 28.2451 22.2314 28.1604L27.8735 24.03C27.9892 23.9454 28.1338 23.9101 28.2755 23.932C28.4171 23.9539 28.5443 24.0312 28.629 24.1469L40.7564 40.7131C40.8411 40.8288 40.8764 40.9734 40.8545 41.115C40.8326 41.2567 40.7553 41.3839 40.6396 41.4686ZM34.795 44.4073L39.5648 40.9155L28.076 25.2217L23.3061 28.7135L34.795 44.4073Z" fill="#C3E5FE"/>
<path d="M51.0033 33.8811L45.3633 38.0099C45.2476 38.0946 45.1031 38.1298 44.9614 38.1079C44.8197 38.086 44.6925 38.0087 44.6079 37.893L29.1221 16.7393L27.5519 17.8888C27.4729 17.9466 27.3798 17.9819 27.2823 17.9909C27.1849 17.9999 27.0868 17.9823 26.9986 17.94C26.9104 17.8976 26.8353 17.8321 26.7814 17.7504C26.7275 17.6687 26.6968 17.574 26.6925 17.4762L26.2232 6.70874C26.2241 6.62143 26.2454 6.53554 26.2853 6.45788C26.3252 6.38021 26.3826 6.31292 26.4531 6.26135C26.5235 6.20978 26.605 6.17534 26.6911 6.16077C26.7772 6.1462 26.8655 6.15191 26.949 6.17743L37.0709 9.87857C37.1628 9.91217 37.2439 9.97009 37.3055 10.0462C37.367 10.1222 37.4068 10.2136 37.4205 10.3105C37.4342 10.4074 37.4214 10.5062 37.3833 10.5963C37.3453 10.6865 37.2835 10.7647 37.2045 10.8224L35.6344 11.9719L51.1202 33.1256C51.2048 33.2413 51.2401 33.3859 51.2182 33.5276C51.1963 33.6692 51.119 33.7964 51.0033 33.8811ZM45.1613 36.818L49.9286 33.3281L34.4427 12.1743C34.3581 12.0587 34.3228 11.9141 34.3447 11.7724C34.3666 11.6307 34.4439 11.5036 34.5596 11.4189L35.7503 10.5472L27.3396 7.47242L27.7272 16.4206L28.9196 15.5477C29.0353 15.463 29.1799 15.4277 29.3216 15.4497C29.4632 15.4716 29.5904 15.5489 29.6751 15.6646L45.1613 36.818Z" fill="#C3E5FE"/>
</g>
<defs>
<clipPath id="clip0">
<rect width="40" height="40" fill="white" transform="translate(0 23.6279) rotate(-36.2064)"/>
</clipPath>
</defs>
</svg>
