<svg width="50" height="50" viewBox="0 0 50 50" fill="none" xmlns="http://www.w3.org/2000/svg">
<path d="M47 15.5H3V8L6 6H8.5V8L10.5 9.5L13 8V5H36.5L37.5 8L39 9.5L42 8V5H44.5L47 8V15.5Z" fill="#24B300"/>
<ellipse cx="10.5" cy="5" rx="2.5" ry="4" fill="#FFD15C"/>
<ellipse cx="39.5" cy="5" rx="2.5" ry="4" fill="#FFD15C"/>
<path d="M43.0166 4.08163H42.4426V3.125C42.4426 1.40306 41.0395 0 39.3176 0C37.5957 0 36.1926 1.40306 36.1926 3.125V4.08163H13.8074V3.125C13.8074 1.46684 12.4043 0.0637755 10.6824 0.0637755C8.96046 0.0637755 7.5574 1.46684 7.5574 3.18878V4.14541H6.98342C4.24108 4.14541 2.07271 6.37755 2.07271 9.05612V45.0893C2.07271 47.8316 4.30485 50 6.98342 50H43.0166C45.7589 50 47.9273 47.7679 47.9273 45.0893V8.99235C47.9273 6.25 45.6952 4.08163 43.0166 4.08163ZM39.3814 1.78571C40.1467 1.78571 40.7207 2.42347 40.7207 3.125V6.7602C40.7207 7.52551 40.0829 8.09949 39.3814 8.09949C38.6161 8.09949 38.0421 7.46173 38.0421 6.7602V4.97449V3.18878C37.9783 2.42347 38.6161 1.78571 39.3814 1.78571ZM9.34312 4.97449V3.18878C9.34312 2.42347 9.98087 1.78571 10.6824 1.78571C11.4477 1.78571 12.0217 2.42347 12.0217 3.125V6.7602C12.0217 7.52551 11.3839 8.09949 10.6824 8.09949C9.9171 8.09949 9.34312 7.46173 9.34312 6.7602V4.97449ZM46.2054 45.0255C46.2054 46.7474 44.8023 48.2143 43.0166 48.2143H7.0472C5.32526 48.2143 3.85842 46.8112 3.85842 45.0255V15.9439H46.2054V45.0255ZM46.2691 14.2219H3.85842V9.05612C3.85842 7.33418 5.26148 5.86735 7.0472 5.86735H7.62118V6.82398C7.62118 8.54592 9.02424 9.94898 10.7462 9.94898C12.4681 9.94898 13.8712 8.54592 13.8712 6.82398V5.86735H36.2564V6.82398C36.2564 8.54592 37.6594 9.94898 39.3814 9.94898C41.1033 9.94898 42.5064 8.54592 42.5064 6.82398V5.86735H43.0804C44.8023 5.86735 46.2691 7.27041 46.2691 9.05612V14.2219Z" fill="#525D7D"/>
<path d="M12.4681 23.7246H8.13138C7.62118 23.7246 7.23853 24.1073 7.23853 24.6175C7.3023 25.1277 7.68495 25.5103 8.13138 25.5103H12.4681C12.9783 25.5103 13.361 25.1277 13.361 24.6175C13.361 24.1073 12.9783 23.7246 12.4681 23.7246Z" fill="#525D7D"/>
<path d="M12.4681 29H8.13138C7.62118 29 7.23853 29.3827 7.23853 29.8929C7.3023 30.4031 7.68495 30.7857 8.13138 30.7857H12.4681C12.9783 30.7857 13.361 30.4031 13.361 29.8929C13.361 29.3827 12.9783 29 12.4681 29Z" fill="#525D7D"/>
<path d="M12.4681 34H8.13138C7.62118 34 7.23853 34.3827 7.23853 34.8929C7.3023 35.4031 7.68495 35.7857 8.13138 35.7857H12.4681C12.9783 35.7857 13.361 35.4031 13.361 34.8929C13.361 34.3827 12.9783 34 12.4681 34Z" fill="#525D7D"/>
<path d="M12.4681 39H8.13138C7.62118 39 7.23853 39.3827 7.23853 39.8929C7.3023 40.4031 7.68495 40.7857 8.13138 40.7857H12.4681C12.9783 40.7857 13.361 40.4031 13.361 39.8929C13.361 39.3827 12.9783 39 12.4681 39Z" fill="#525D7D"/>
<path d="M19.6747 23.7246H15.338C14.8278 23.7246 14.4451 24.1073 14.4451 24.6175C14.4451 25.1277 14.8278 25.5103 15.338 25.5103H19.6747C20.1849 25.5103 20.5676 25.1277 20.5676 24.6175C20.5676 24.1073 20.1849 23.7246 19.6747 23.7246Z" fill="#525D7D"/>
<path d="M19.6747 29H15.338C14.8278 29 14.4451 29.3827 14.4451 29.8929C14.4451 30.4031 14.8278 30.7857 15.338 30.7857H19.6747C20.1849 30.7857 20.5676 30.4031 20.5676 29.8929C20.5676 29.3827 20.1849 29 19.6747 29Z" fill="#525D7D"/>
<path d="M19.6747 34H15.338C14.8278 34 14.4451 34.3827 14.4451 34.8929C14.4451 35.4031 14.8278 35.7857 15.338 35.7857H19.6747C20.1849 35.7857 20.5676 35.4031 20.5676 34.8929C20.5676 34.3827 20.1849 34 19.6747 34Z" fill="#525D7D"/>
<path d="M19.6747 39H15.338C14.8278 39 14.4451 39.3827 14.4451 39.8929C14.4451 40.4031 14.8278 40.7857 15.338 40.7857H19.6747C20.1849 40.7857 20.5676 40.4031 20.5676 39.8929C20.5676 39.3827 20.1849 39 19.6747 39Z" fill="#525D7D"/>
<path d="M26.8176 23.7246H22.4809C21.9707 23.7246 21.588 24.1073 21.588 24.6175C21.588 25.1277 22.0344 25.5103 22.4809 25.5103H26.8176C27.3278 25.5103 27.7105 25.1277 27.7105 24.6175C27.7105 24.1073 27.3278 23.7246 26.8176 23.7246Z" fill="#525D7D"/>
<path d="M26.8176 29H22.4809C21.9707 29 21.588 29.3827 21.588 29.8929C21.588 30.4031 22.0344 30.7857 22.4809 30.7857H26.8176C27.3278 30.7857 27.7105 30.4031 27.7105 29.8929C27.7105 29.3827 27.3278 29 26.8176 29Z" fill="#525D7D"/>
<path d="M26.8176 34H22.4809C21.9707 34 21.588 34.3827 21.588 34.8929C21.588 35.4031 22.0344 35.7857 22.4809 35.7857H26.8176C27.3278 35.7857 27.7105 35.4031 27.7105 34.8929C27.7105 34.3827 27.3278 34 26.8176 34Z" fill="#525D7D"/>
<path d="M26.8176 39H22.4809C21.9707 39 21.588 39.3827 21.588 39.8929C21.588 40.4031 22.0344 40.7857 22.4809 40.7857H26.8176C27.3278 40.7857 27.7105 40.4031 27.7105 39.8929C27.7105 39.3827 27.3278 39 26.8176 39Z" fill="#525D7D"/>
<path d="M33.9605 23.7246H29.6237C29.1135 23.7246 28.7309 24.1073 28.7309 24.6175C28.7946 25.1277 29.1773 25.5103 29.6237 25.5103H33.9605C34.4707 25.5103 34.8533 25.1277 34.8533 24.6175C34.8533 24.1073 34.4707 23.7246 33.9605 23.7246Z" fill="#525D7D"/>
<path d="M33.9605 29H29.6237C29.1135 29 28.7309 29.3827 28.7309 29.8929C28.7946 30.4031 29.1773 30.7857 29.6237 30.7857H33.9605C34.4707 30.7857 34.8533 30.4031 34.8533 29.8929C34.8533 29.3827 34.4707 29 33.9605 29Z" fill="#525D7D"/>
<path d="M33.9605 34H29.6237C29.1135 34 28.7309 34.3827 28.7309 34.8929C28.7946 35.4031 29.1773 35.7857 29.6237 35.7857H33.9605C34.4707 35.7857 34.8533 35.4031 34.8533 34.8929C34.8533 34.3827 34.4707 34 33.9605 34Z" fill="#525D7D"/>
<path d="M41.1671 23.7246H36.8304C36.3202 23.7246 35.9375 24.1073 35.9375 24.6175C35.9375 25.1277 36.3202 25.5103 36.8304 25.5103H41.1671C41.6773 25.5103 42.0599 25.1277 42.0599 24.6175C42.0599 24.1073 41.6773 23.7246 41.1671 23.7246Z" fill="#525D7D"/>
<path d="M41.1671 29H36.8304C36.3202 29 35.9375 29.3827 35.9375 29.8929C35.9375 30.4031 36.3202 30.7857 36.8304 30.7857H41.1671C41.6773 30.7857 42.0599 30.4031 42.0599 29.8929C42.0599 29.3827 41.6773 29 41.1671 29Z" fill="#525D7D"/>
<path d="M41.1671 34H36.8304C36.3202 34 35.9375 34.3827 35.9375 34.8929C35.9375 35.4031 36.3202 35.7857 36.8304 35.7857H41.1671C41.6773 35.7857 42.0599 35.4031 42.0599 34.8929C42.0599 34.3827 41.6773 34 41.1671 34Z" fill="#525D7D"/>
</svg>
