<svg width="40" height="48" viewBox="0 0 40 48" fill="none" xmlns="http://www.w3.org/2000/svg">
<path d="M29 1.5H11L10 3L11 9H29L30 3L29 1.5Z" fill="#FFD15C"/>
<path d="M26.5298 35.4972L25.4289 34.3071L24.75 35.041L26.1904 36.598C26.2804 36.6953 26.4025 36.75 26.5298 36.75C26.6571 36.75 26.7792 36.6953 26.8693 36.598L29.75 33.4839L29.0711 32.75L26.5298 35.4972Z" fill="white"/>
<path d="M38.75 3.6875H31.2656L31.3297 3.36562C31.3976 3.02566 31.3893 2.67486 31.3053 2.3385C31.2214 2.00214 31.0638 1.6886 30.844 1.42048C30.6243 1.15235 30.3477 0.936324 30.0344 0.787961C29.7211 0.639597 29.3787 0.562594 29.032 0.5625H10.968C10.6214 0.562825 10.2792 0.639998 9.9661 0.788462C9.65296 0.936926 9.37664 1.15299 9.15704 1.42108C8.93743 1.68917 8.78002 2.00263 8.69613 2.33888C8.61223 2.67513 8.60395 3.02579 8.67188 3.36562L8.73438 3.6875H1.25C1.0428 3.6875 0.844086 3.76981 0.697573 3.91632C0.55106 4.06284 0.46875 4.26155 0.46875 4.46875V46.6562C0.46875 46.8634 0.55106 47.0622 0.697573 47.2087C0.844086 47.3552 1.0428 47.4375 1.25 47.4375H38.75C38.9572 47.4375 39.1559 47.3552 39.3024 47.2087C39.4489 47.0622 39.5312 46.8634 39.5312 46.6562V4.46875C39.5312 4.26155 39.4489 4.06284 39.3024 3.91632C39.1559 3.76981 38.9572 3.6875 38.75 3.6875ZM9.60938 8.05313C9.71649 8.58377 10.0036 9.06114 10.4221 9.4045C10.8406 9.74786 11.3649 9.93614 11.9062 9.9375H28.0938C28.6351 9.93614 29.1594 9.74786 29.5779 9.4045C29.9964 9.06114 30.2835 8.58377 30.3906 8.05313L30.4844 7.59375H35.625V43.5312H4.375V7.59375H9.51562L9.60938 8.05313ZM10.3664 2.41094C10.4392 2.3216 10.5309 2.24958 10.6349 2.20012C10.739 2.15066 10.8528 2.125 10.968 2.125H29.032C29.1479 2.12498 29.2623 2.15072 29.367 2.20038C29.4717 2.25003 29.564 2.32234 29.6373 2.41208C29.7106 2.50182 29.763 2.60674 29.7907 2.71923C29.8185 2.83172 29.8208 2.94898 29.7977 3.0625L28.8602 7.75C28.8241 7.92659 28.7281 8.08529 28.5884 8.1992C28.4488 8.31311 28.274 8.37522 28.0938 8.375H11.9062C11.726 8.37522 11.5512 8.31311 11.4116 8.1992C11.2719 8.08529 11.1759 7.92659 11.1398 7.75L10.2023 3.0625C10.1793 2.94865 10.1819 2.83108 10.21 2.71837C10.2381 2.60566 10.291 2.50063 10.3648 2.41094H10.3664ZM37.9688 45.875H2.03125V5.25H9.04688L9.20312 6.03125H3.59375C3.38655 6.03125 3.18784 6.11356 3.04132 6.26007C2.89481 6.40659 2.8125 6.6053 2.8125 6.8125V44.3125C2.8125 44.5197 2.89481 44.7184 3.04132 44.8649C3.18784 45.0114 3.38655 45.0938 3.59375 45.0938H36.4062C36.6134 45.0938 36.8122 45.0114 36.9587 44.8649C37.1052 44.7184 37.1875 44.5197 37.1875 44.3125V6.8125C37.1875 6.6053 37.1052 6.40659 36.9587 6.26007C36.8122 6.11356 36.6134 6.03125 36.4062 6.03125H30.7969L30.9531 5.25H37.9688V45.875Z" fill="#525D7D"/>
<path d="M7.5 14.625H32.5V16.1875H7.5V14.625Z" fill="#525D7D"/>
<path d="M7.5 20.0938H29.0281V21.6562H7.5V20.0938Z" fill="#525D7D"/>
<path d="M7.5 25.5625H19.3055V27.125H7.5V25.5625Z" fill="#525D7D"/>
<path d="M27.0313 27.9062C25.6406 27.9062 24.2812 28.3186 23.1249 29.0912C21.9686 29.8638 21.0674 30.962 20.5352 32.2468C20.003 33.5316 19.8638 34.9453 20.1351 36.3092C20.4064 37.6732 21.0761 38.926 22.0594 39.9093C23.0427 40.8927 24.2956 41.5623 25.6595 41.8336C27.0235 42.105 28.4372 41.9657 29.722 41.4335C31.0068 40.9013 32.1049 40.0001 32.8775 38.8439C33.6501 37.6876 34.0625 36.3282 34.0625 34.9375C34.0602 33.0734 33.3187 31.2863 32.0006 29.9682C30.6825 28.65 28.8954 27.9085 27.0313 27.9062ZM27.0313 40.4063C25.9496 40.4063 24.8923 40.0855 23.993 39.4846C23.0936 38.8837 22.3927 38.0296 21.9788 37.0303C21.5649 36.031 21.4566 34.9314 21.6676 33.8706C21.8786 32.8098 22.3994 31.8353 23.1643 31.0705C23.9291 30.3057 24.9035 29.7848 25.9644 29.5738C27.0252 29.3628 28.1248 29.4711 29.1241 29.885C30.1233 30.299 30.9774 30.9999 31.5784 31.8992C32.1793 32.7986 32.5 33.8559 32.5 34.9375C32.4984 36.3874 31.9216 37.7774 30.8964 38.8027C29.8712 39.8279 28.4811 40.4046 27.0313 40.4063Z" fill="#525D7D"/>
</svg>
