<svg width="46" height="50" viewBox="0 0 46 50" fill="none" xmlns="http://www.w3.org/2000/svg">
<path d="M41.0166 4.08163H40.4426V3.125C40.4426 1.40306 39.0395 0 37.3176 0C35.5957 0 34.1926 1.40306 34.1926 3.125V4.08163H11.8074V3.125C11.8074 1.46684 10.4043 0.0637755 8.6824 0.0637755C6.96046 0.0637755 5.5574 1.46684 5.5574 3.18878V4.14541H4.98342C2.24108 4.14541 0.0727081 6.37755 0.0727081 9.05612V45.0893C0.0727081 47.8316 2.30485 50 4.98342 50H41.0166C43.7589 50 45.9273 47.7679 45.9273 45.0893V8.99235C45.9273 6.25 43.6952 4.08163 41.0166 4.08163ZM37.3814 1.78571C38.1467 1.78571 38.7207 2.42347 38.7207 3.125V6.7602C38.7207 7.52551 38.0829 8.09949 37.3814 8.09949C36.6161 8.09949 36.0421 7.46173 36.0421 6.7602V4.97449V3.18878C35.9783 2.42347 36.6161 1.78571 37.3814 1.78571ZM7.34312 4.97449V3.18878C7.34312 2.42347 7.98087 1.78571 8.6824 1.78571C9.44771 1.78571 10.0217 2.42347 10.0217 3.125V6.7602C10.0217 7.52551 9.38393 8.09949 8.6824 8.09949C7.9171 8.09949 7.34312 7.46173 7.34312 6.7602V4.97449ZM44.2054 45.0255C44.2054 46.7474 42.8023 48.2143 41.0166 48.2143H5.0472C3.32526 48.2143 1.85842 46.8112 1.85842 45.0255V15.9439H44.2054V45.0255ZM44.2691 14.2219H1.85842V9.05612C1.85842 7.33418 3.26148 5.86735 5.0472 5.86735H5.62118V6.82398C5.62118 8.54592 7.02424 9.94898 8.74618 9.94898C10.4681 9.94898 11.8712 8.54592 11.8712 6.82398V5.86735H34.2564V6.82398C34.2564 8.54592 35.6594 9.94898 37.3814 9.94898C39.1033 9.94898 40.5064 8.54592 40.5064 6.82398V5.86735H41.0804C42.8023 5.86735 44.2691 7.27041 44.2691 9.05612V14.2219Z" fill="#525D7D"/>
</svg>
