<svg width="29" height="28" viewBox="0 0 29 28" fill="none" xmlns="http://www.w3.org/2000/svg">
<path d="M15.6514 28.0006C15.6047 28.0006 10.5529 27.7305 9.328 26.9106C9.06444 26.7145 8.64318 26.4896 8.15658 26.2297C5.50962 24.8171 0 21.8788 0 14.0969C0 7.13603 5.5665 -0.305702 13.7479 0.0107271C17.3522 0.161596 20.5866 1.2448 23.3569 3.23152C23.4072 3.2679 23.4547 3.30814 23.4988 3.35188C23.6002 3.45415 23.7185 3.56829 23.8497 3.69599C25.3906 5.18886 29 8.6854 29 14.2969C29 20.6334 23.1688 28.0006 15.6514 28.0006ZM10.5681 25.0239C11.2558 25.3465 14.8112 25.7426 15.6514 25.7426C21.7991 25.7426 26.7495 19.4801 26.7495 14.2952C26.7495 9.6426 23.7348 6.72354 22.2863 5.31826C22.1737 5.2092 22.0689 5.10806 21.976 5.01539C19.5515 3.29876 16.8285 2.39977 13.6561 2.26698C13.5096 2.26057 13.3636 2.25756 13.2179 2.25794C6.65795 2.25794 2.25048 8.37971 2.25048 14.0969C2.25048 20.5221 6.61121 22.8445 9.21312 24.2356C9.77292 24.5351 10.2223 24.7747 10.5681 25.0239Z" fill="#525D7D"/>
<path d="M14.3341 21.9827C9.42318 21.9827 5.71744 18.5359 5.71744 13.9647C5.71744 11.9983 6.52392 10.2218 7.98763 8.96226C10.1947 7.06482 12.1191 6.38393 14.0261 6.79812C14.3077 6.7919 14.5893 6.7676 14.8708 6.74444C15.2549 6.71223 15.6396 6.68115 16.0242 6.68115C19.1702 6.68341 22.6653 10.7145 22.6653 13.4471C22.6653 15.7242 20.6908 21.9827 14.3341 21.9827ZM12.9752 8.94362C11.9614 8.94362 10.8103 9.50867 9.45303 10.6772C8.22585 11.7327 7.96848 13.0504 7.96848 13.9652C7.96848 17.2493 10.7044 19.7254 14.3324 19.7254C19.2913 19.7254 20.4148 14.4235 20.4148 13.4476C20.4148 11.9955 17.9565 8.94023 16.0265 8.94023C15.7044 8.94023 15.3817 8.96848 15.0595 8.99673C14.6754 9.02894 14.2908 9.06002 13.9061 9.06002C13.8142 9.06003 13.7227 9.04864 13.6335 9.02612C13.4183 8.97174 13.1972 8.94404 12.9752 8.94362Z" fill="#525D7D"/>
<path d="M14.9903 8.99663C14.7051 8.99615 14.4308 8.88718 14.2226 8.69171C14.0143 8.49623 13.8878 8.22881 13.8684 7.94338L13.7895 6.79011C13.6628 4.97177 13.5327 3.09128 13.4899 1.22379C13.4833 0.924521 13.5952 0.634834 13.8012 0.418301C14.0072 0.201768 14.2904 0.0760793 14.5887 0.0688199C15.2043 0.026441 15.7258 0.547983 15.7399 1.1718C15.7815 2.98731 15.9088 4.84068 16.035 6.63359L16.1144 7.79138C16.1342 8.09006 16.035 8.38441 15.8388 8.60984C15.6425 8.83527 15.3651 8.97336 15.0674 8.99381C15.0415 8.9955 15.0162 8.99663 14.9903 8.99663Z" fill="#525D7D"/>
<path d="M27.6743 17.4081C27.6551 17.4081 27.6363 17.4081 27.6179 17.4081L27.3363 17.3945C25.2357 17.2889 23.064 17.1798 20.9392 17.1572C20.7912 17.1557 20.6451 17.1249 20.509 17.0667C20.373 17.0084 20.2497 16.9239 20.1462 16.8178C20.0427 16.7118 19.961 16.5863 19.9058 16.4486C19.8507 16.3109 19.8231 16.1637 19.8246 16.0153C19.8262 15.8669 19.8568 15.7202 19.9149 15.5837C19.9729 15.4472 20.0572 15.3235 20.1629 15.2196C20.2686 15.1158 20.3936 15.0339 20.5309 14.9785C20.6681 14.9232 20.8149 14.8955 20.9628 14.897C23.1322 14.9196 25.3269 15.0298 27.449 15.1366L27.7306 15.1507C28.019 15.1721 28.2882 15.304 28.4824 15.5191C28.6765 15.7342 28.7808 16.0159 28.7736 16.306C28.7663 16.5961 28.6481 16.8723 28.4435 17.0774C28.2388 17.2824 27.9634 17.4007 27.6743 17.4075V17.4081Z" fill="#525D7D"/>
</svg>
