<svg width="150" height="227" viewBox="0 0 150 227" fill="none" xmlns="http://www.w3.org/2000/svg">
<path d="M33.5157 226.745C33.2161 226.747 32.9266 226.637 32.7031 226.437C32.4796 226.238 32.3381 225.962 32.3059 225.664C31.0311 213.86 30.5196 202.089 30.138 187.977C30.1318 187.814 30.1589 187.651 30.2175 187.499C30.2761 187.347 30.3651 187.208 30.479 187.091C30.7119 186.858 31.0269 186.727 31.3559 186.725C36.9827 186.725 41.7083 186.79 46.5312 187.018C46.83 187.035 47.1122 187.161 47.3246 187.372C47.5369 187.584 47.6649 187.865 47.6842 188.164C48.4961 201.073 49.5111 214.055 50.4367 225.208C50.4489 225.38 50.4257 225.552 50.3684 225.715C50.3111 225.877 50.221 226.026 50.1038 226.151C49.9847 226.276 49.8408 226.375 49.6814 226.441C49.522 226.507 49.3505 226.538 49.1782 226.534L47.5543 226.477C45.4432 226.403 43.2672 226.322 41.1318 226.322C38.649 226.301 36.1675 226.439 33.7025 226.737L33.5157 226.745ZM32.6063 189.164C32.9636 202.171 33.4183 213.21 34.6037 224.176C36.5686 223.981 38.6634 223.883 41.0993 223.883C43.2753 223.883 45.4757 223.965 47.5949 224.038H47.8872C47.0184 213.47 46.0522 201.447 45.3133 189.4C41.2698 189.237 37.2263 189.18 32.5982 189.164H32.6063Z" fill="#525D7D"/>
<path d="M4.22065 226.745C3.94141 226.744 3.6709 226.647 3.45386 226.472C3.23682 226.296 3.08626 226.051 3.02708 225.778C1.78992 219.177 1.05974 212.492 0.842951 205.78C0.834121 205.615 0.859086 205.449 0.916326 205.293C0.973567 205.138 1.06188 204.996 1.17586 204.875C1.28985 204.755 1.42712 204.66 1.57929 204.594C1.73145 204.529 1.89532 204.495 2.06087 204.496C7.67954 204.496 12.4132 204.496 17.2037 204.65C17.4971 204.658 17.7778 204.772 17.9941 204.97C18.2104 205.169 18.3478 205.439 18.381 205.731C19.1929 212.503 20.2079 219.347 21.1254 225.241C21.1527 225.417 21.1415 225.597 21.0924 225.768C21.0433 225.94 20.9576 226.098 20.8412 226.233C20.7216 226.362 20.5772 226.465 20.4167 226.536C20.2563 226.607 20.083 226.645 19.9075 226.647H18.2836C16.1644 226.607 13.9721 226.566 11.788 226.566C8.92182 226.566 6.54281 226.631 4.2856 226.786L4.22065 226.745ZM3.34374 206.934C3.57228 212.742 4.19622 218.527 5.21122 224.249C7.20861 224.136 9.32779 224.087 11.8042 224.087C13.9721 224.087 16.1806 224.127 18.2998 224.168H18.4866C17.6746 218.917 16.7815 212.991 16.0507 207.097C12.0397 206.975 7.98808 206.942 3.34374 206.934Z" fill="#525D7D"/>
<path d="M70.8653 226.745C68.9978 226.745 67.1222 226.745 65.2466 226.745H63.777C63.4786 226.741 63.1919 226.628 62.9707 226.427C62.7494 226.227 62.6088 225.952 62.5753 225.655C61.195 213.007 61.0732 200.073 60.9514 187.563C60.8621 178.482 60.7646 169.101 60.1963 159.924C60.1819 159.743 60.2086 159.561 60.2744 159.392C60.3402 159.223 60.4433 159.071 60.5761 158.947C60.7089 158.824 60.8678 158.732 61.0411 158.678C61.2144 158.625 61.3974 158.612 61.5766 158.639C63.8463 158.93 66.1332 159.066 68.4213 159.046C70.4187 159.046 72.481 158.972 74.4378 158.899C76.0049 158.834 77.5719 158.777 79.139 158.753C79.4616 158.759 79.7708 158.883 80.0078 159.103C80.1237 159.216 80.2158 159.351 80.2785 159.5C80.3413 159.65 80.3735 159.81 80.3732 159.972C80.3732 184.189 80.8522 205.544 81.7291 225.257C81.7424 225.578 81.6288 225.891 81.4129 226.128C81.197 226.366 80.8964 226.508 80.5761 226.525C77.7343 226.68 74.7382 226.745 70.8653 226.745ZM64.8812 224.306H65.2628C67.1303 224.306 69.0059 224.306 70.8653 224.306C74.1536 224.306 76.7925 224.257 79.2446 224.143C78.4326 205.073 77.986 184.457 77.9373 161.208L74.5271 161.322C72.5297 161.403 70.4674 161.476 68.4213 161.476C66.5236 161.487 64.6265 161.4 62.7377 161.216C63.2411 169.963 63.3223 178.873 63.4116 187.497C63.5009 199.594 63.6227 212.088 64.8812 224.274V224.306Z" fill="#525D7D"/>
<path d="M97.8056 226.745H95.2805C94.9609 226.743 94.6547 226.616 94.4272 226.391C94.1997 226.166 94.0689 225.862 94.0625 225.542C93.6241 194.35 92.7878 166.906 91.4887 141.649C91.4815 141.478 91.5105 141.307 91.5735 141.147C91.6366 140.987 91.7325 140.842 91.855 140.722C91.9774 140.602 92.1237 140.509 92.2844 140.449C92.4451 140.388 92.6166 140.363 92.7878 140.373C94.5903 140.479 96.4009 140.609 98.2197 140.739C101.735 140.991 105.365 141.251 108.913 141.381C109.224 141.389 109.52 141.517 109.739 141.738C109.958 141.959 110.084 142.257 110.09 142.568C110.277 151.713 110.383 160.988 110.488 169.955C110.691 187.896 110.902 206.446 111.795 224.753C111.809 225.056 111.71 225.352 111.518 225.587C111.327 225.821 111.055 225.975 110.756 226.021C106.463 226.577 102.134 226.818 97.8056 226.745ZM96.4821 224.306C100.766 224.4 105.051 224.218 109.311 223.761C108.499 205.772 108.255 187.579 108.052 169.979C107.955 161.395 107.849 152.526 107.679 143.771C104.431 143.633 101.183 143.397 98.0492 143.17L93.9895 142.893C95.2236 167.476 96.0356 194.139 96.4821 224.306Z" fill="#525D7D"/>
<path d="M124.348 226.745C124.037 226.745 123.738 226.627 123.512 226.414C123.285 226.201 123.149 225.909 123.13 225.599C121.985 206.633 121.628 187.351 121.287 168.695C121.076 157.127 120.857 145.161 120.475 133.406V133.301C120.468 133.139 120.493 132.978 120.551 132.827C120.608 132.676 120.695 132.539 120.808 132.423C121.034 132.187 121.343 132.05 121.669 132.041C124.551 131.992 127.442 132.041 130.34 132.041C131.964 132.041 133.523 132.041 135.115 132.041C137.445 132.041 139.361 132.041 141.147 131.951C141.309 131.946 141.471 131.973 141.623 132.03C141.775 132.087 141.914 132.174 142.032 132.285C142.266 132.514 142.4 132.827 142.406 133.154C142.444 137.089 142.482 141.021 142.52 144.95C142.763 170.638 143.015 197.204 144.225 223.42C144.24 223.722 144.141 224.019 143.949 224.252C143.757 224.485 143.484 224.638 143.185 224.68C137.226 225.558 130.836 226.403 124.429 226.704L124.348 226.745ZM122.927 134.48C123.309 145.86 123.52 157.46 123.739 168.671C124.072 186.888 124.421 205.715 125.509 224.249C131.022 223.932 136.527 223.217 141.748 222.469C140.579 196.57 140.335 170.361 140.124 145.015C140.092 141.503 140.057 137.98 140.019 134.447C138.557 134.447 136.982 134.504 135.147 134.504C133.523 134.504 131.948 134.504 130.348 134.504C127.84 134.471 125.379 134.447 122.927 134.48Z" fill="#525D7D"/>
<path d="M139.556 72.796C135.577 72.796 129.666 68.1705 129.666 61.781C129.666 57.5214 132.175 52.4895 137.68 51.514C138.013 51.458 138.35 51.4308 138.687 51.4327C144.923 51.4327 146.961 59.6512 146.961 62.4801C146.961 66.0082 144.752 72.796 139.556 72.796ZM138.102 53.9202C133.986 54.6437 132.102 58.505 132.102 61.781C132.102 66.8211 136.974 70.3572 139.556 70.3572C143.047 70.3572 144.525 64.7238 144.525 62.4801C144.525 60.6592 143.063 53.8714 138.687 53.8714C138.491 53.8709 138.296 53.8872 138.102 53.9202Z" fill="#525D7D"/>
<path d="M132.492 134.512C132.227 134.513 131.969 134.427 131.758 134.267C131.547 134.106 131.394 133.881 131.323 133.626C129.737 128.503 127.816 123.49 125.574 118.62C122.538 111.637 119.891 105.613 119.891 100.183C119.891 85.5992 132.248 73.5356 138.565 73.5356C146.782 73.5356 149.681 92.5903 149.681 97.4596C149.681 102.768 148.057 107.775 146.433 111.97C146.376 112.119 146.289 112.256 146.179 112.372C146.068 112.488 145.936 112.581 145.79 112.646C145.644 112.711 145.486 112.747 145.326 112.75C145.166 112.754 145.007 112.727 144.858 112.669C144.709 112.611 144.572 112.525 144.456 112.415C144.34 112.304 144.247 112.172 144.183 112.025C144.118 111.879 144.082 111.721 144.078 111.561C144.074 111.401 144.102 111.242 144.16 111.092C145.686 107.109 147.253 102.37 147.253 97.4596C147.039 93.15 146.286 88.8842 145.012 84.7619C143.25 79.0716 140.952 75.9744 138.573 75.9744C134.002 75.9744 122.335 86.7048 122.335 100.183C122.335 105.101 124.86 110.913 127.791 117.644C130.073 122.613 132.029 127.727 133.645 132.951C133.696 133.133 133.705 133.324 133.67 133.509C133.636 133.695 133.559 133.87 133.446 134.021C133.333 134.172 133.186 134.295 133.018 134.38C132.85 134.465 132.664 134.51 132.476 134.512H132.492Z" fill="#525D7D"/>
<path d="M136.673 134.504C136.514 134.505 136.356 134.474 136.208 134.414C136.06 134.354 135.926 134.265 135.813 134.152C135.7 134.039 135.61 133.906 135.548 133.758C135.487 133.611 135.456 133.452 135.456 133.293C135.456 129.318 135.18 125.164 134.92 121.229C134.66 117.295 134.368 113.011 134.368 108.938C134.368 99.9552 135.732 93.3137 138.801 87.3958C138.87 87.2459 138.968 87.1116 139.09 87.001C139.213 86.8904 139.356 86.8058 139.512 86.7522C139.668 86.6987 139.833 86.6774 139.997 86.6896C140.162 86.7018 140.322 86.7473 140.468 86.8233C140.614 86.8992 140.744 87.0041 140.848 87.1316C140.953 87.2591 141.03 87.4065 141.077 87.5649C141.123 87.7233 141.136 87.8894 141.116 88.0531C141.096 88.2169 141.043 88.3749 140.961 88.5176C138.086 94.0698 136.803 100.37 136.803 108.938C136.803 112.929 137.079 117.067 137.347 121.066C137.615 125.066 137.891 129.236 137.891 133.26C137.894 133.586 137.767 133.9 137.539 134.133C137.31 134.366 136.999 134.5 136.673 134.504Z" fill="#525D7D"/>
<path d="M127.701 83.5427C127.491 83.543 127.283 83.4885 127.099 83.3845C126.916 83.2805 126.762 83.1305 126.654 82.9492C122.099 75.3079 119.972 65.8131 119.972 53.0585C119.972 50.4735 120.061 47.6852 120.232 44.5311C120.252 44.2083 120.4 43.9068 120.642 43.6922C120.883 43.4775 121.2 43.3671 121.523 43.3849C121.682 43.3932 121.839 43.4331 121.983 43.5023C122.127 43.5715 122.256 43.6686 122.363 43.7881C122.469 43.9075 122.551 44.0469 122.603 44.1981C122.655 44.3494 122.677 44.5095 122.667 44.6693C122.489 47.7746 122.408 50.5141 122.408 53.0585C122.408 65.3497 124.421 74.4543 128.749 81.6973C128.913 81.9759 128.961 82.308 128.882 82.6216C128.803 82.9351 128.603 83.2048 128.327 83.3719C128.137 83.4829 127.921 83.5418 127.701 83.5427Z" fill="#525D7D"/>
<path d="M121.019 45.905C118.242 45.905 116.148 44.019 116.148 41.5234C116.148 41.5234 116.391 37.4019 118.486 36.9142C119.13 36.761 119.789 36.6846 120.451 36.6866C124.511 36.6866 127.474 39.548 127.474 41.4746C127.482 45.1164 122.302 45.905 121.019 45.905ZM119.225 39.2472C118.865 39.9564 118.65 40.7301 118.591 41.5234C118.591 42.7996 119.809 43.4662 121.027 43.4662C121.839 43.4662 125.087 42.8484 125.087 41.4746C124.973 40.9706 123.309 39.1253 120.5 39.1253C120.072 39.1225 119.644 39.1633 119.225 39.2472Z" fill="#525D7D"/>
<path d="M99.6325 44.7831C99.3457 44.7836 99.0679 44.6828 98.8481 44.4984C98.6283 44.314 98.4805 44.0579 98.4308 43.7751C96.6932 33.882 95.8569 23.68 95.045 13.8194C94.8095 10.8929 94.5741 7.96644 94.3061 5.04809C94.2912 4.8857 94.3095 4.72198 94.3597 4.56687C94.41 4.41175 94.4912 4.26848 94.5984 4.14576C94.7037 4.02017 94.8338 3.91777 94.9805 3.84502C95.1272 3.77227 95.2874 3.73074 95.451 3.72305C120.337 2.22729 136.738 0.755928 144.306 0.00805051C144.469 -0.00869615 144.633 0.00780967 144.789 0.0565688C144.946 0.105328 145.09 0.185326 145.215 0.291721C145.339 0.398117 145.441 0.528694 145.514 0.675554C145.586 0.822414 145.628 0.982501 145.637 1.14612C146.449 15.2257 147.675 27.8421 149.316 39.7187C149.338 39.8822 149.327 40.0485 149.284 40.2077C149.241 40.3669 149.166 40.5158 149.064 40.6454C148.959 40.7738 148.829 40.8801 148.683 40.9582C148.537 41.0363 148.376 41.0847 148.211 41.1006C144.087 41.4583 135.748 42.1737 126.346 42.9134C126.024 42.9359 125.707 42.8308 125.462 42.6209C125.218 42.411 125.065 42.1131 125.038 41.7916C125.025 41.6318 125.044 41.471 125.093 41.3184C125.142 41.1658 125.221 41.0245 125.325 40.9028C125.43 40.781 125.557 40.6812 125.7 40.6091C125.843 40.537 125.999 40.4941 126.159 40.4828C134.668 39.8081 142.3 39.1659 146.734 38.7757C145.223 27.5738 144.095 15.6972 143.283 2.56059C135.366 3.32472 119.785 4.69041 96.8475 6.08048C97.0667 8.59238 97.2697 11.1043 97.4727 13.6162C98.2847 23.0703 99.0479 32.8333 100.647 42.2794C105.316 42.0111 110.943 41.629 117.398 41.1494C117.721 41.1257 118.04 41.2314 118.285 41.4433C118.53 41.6552 118.681 41.956 118.705 42.2794C118.729 42.6028 118.623 42.9223 118.412 43.1678C118.2 43.4132 117.9 43.5644 117.577 43.5881C110.602 44.1084 104.585 44.5067 99.7137 44.7831H99.6325Z" fill="#525D7D"/>
<path d="M110.74 32.8333C110.459 32.8341 110.187 32.7385 109.968 32.5624C109.749 32.3864 109.598 32.1405 109.538 31.8659C109.043 29.1183 108.824 26.3625 108.613 23.7368C108.452 20.5617 108.048 17.4037 107.403 14.2908C107.353 14.1314 107.336 13.9633 107.354 13.7971C107.371 13.6309 107.423 13.4701 107.505 13.3246C107.587 13.1792 107.698 13.0522 107.832 12.9516C107.965 12.851 108.118 12.779 108.28 12.7399C108.442 12.7008 108.611 12.6955 108.775 12.7244C108.94 12.7533 109.096 12.8157 109.236 12.9078C109.375 12.9999 109.494 13.1197 109.585 13.2597C109.676 13.3997 109.738 13.557 109.766 13.7218C110.445 16.9353 110.873 20.1968 111.048 23.4767C111.26 26.078 111.471 28.7688 111.95 31.4026C112.004 31.7203 111.932 32.0467 111.748 32.3114C111.564 32.576 111.284 32.7577 110.967 32.817C110.892 32.8311 110.816 32.8366 110.74 32.8333Z" fill="#525D7D"/>
<path d="M116.156 33.3781C115.894 33.3779 115.64 33.2941 115.43 33.1392C115.22 32.9842 115.064 32.766 114.986 32.5164C113.289 26.9317 113.078 21.2007 112.867 15.6567L112.77 13.2179C112.765 12.9058 112.879 12.6035 113.088 12.3724C113.298 12.1413 113.588 11.9989 113.898 11.9742C114.064 11.9583 114.232 11.9774 114.39 12.0303C114.548 12.0832 114.694 12.1687 114.817 12.2813C114.94 12.3938 115.038 12.531 115.105 12.684C115.172 12.8369 115.206 13.0022 115.206 13.1692L115.303 15.6079C115.506 20.9975 115.717 26.5659 117.317 31.8661C117.41 32.1765 117.378 32.5115 117.226 32.7979C117.073 33.0843 116.814 33.2987 116.505 33.3944C116.388 33.4048 116.271 33.3993 116.156 33.3781Z" fill="#525D7D"/>
<path d="M103.164 21.1844C102.841 21.2006 102.525 21.0876 102.285 20.8704C102.046 20.6531 101.902 20.3494 101.886 20.026C101.87 19.7026 101.982 19.3861 102.199 19.1459C102.416 18.9058 102.72 18.7619 103.043 18.7457C105.274 18.4806 107.491 18.1034 109.684 17.6157C112.88 16.8494 116.144 16.4082 119.428 16.2988C119.751 16.2988 120.061 16.4273 120.289 16.656C120.517 16.8846 120.646 17.1948 120.646 17.5182C120.646 17.8416 120.517 18.1517 120.289 18.3804C120.061 18.6091 119.751 18.7376 119.428 18.7376C116.316 18.8498 113.223 19.2746 110.196 20.0057C107.922 20.5089 105.624 20.8969 103.311 21.1682L103.164 21.1844Z" fill="#525D7D"/>
<path d="M104.244 27.4193C103.967 27.4206 103.697 27.3268 103.479 27.1535C103.262 26.9801 103.111 26.7376 103.05 26.4662C102.989 26.1948 103.023 25.9107 103.146 25.6612C103.269 25.4117 103.473 25.2117 103.725 25.0943C107.24 23.4685 111.032 22.9889 114.662 22.5499C115.985 22.3955 117.349 22.2329 118.656 22.0134C118.816 21.9867 118.98 21.9918 119.138 22.0284C119.296 22.0651 119.445 22.1325 119.577 22.2268C119.709 22.3212 119.821 22.4407 119.907 22.5784C119.993 22.7161 120.051 22.8694 120.077 23.0295C120.104 23.1897 120.099 23.3535 120.062 23.5116C120.026 23.6698 119.958 23.8192 119.864 23.9513C119.77 24.0834 119.651 24.1956 119.513 24.2815C119.375 24.3675 119.222 24.4254 119.062 24.4521C117.69 24.6797 116.294 24.8505 114.946 25.0049C111.333 25.4358 107.923 25.8178 104.764 27.338C104.598 27.4 104.421 27.4277 104.244 27.4193Z" fill="#525D7D"/>
<path d="M126.622 31.7521H126.191H126.005C125.743 31.7406 125.492 31.6462 125.288 31.4825C125.083 31.3189 124.936 31.0945 124.868 30.8417C124.633 29.7714 124.483 28.6841 124.421 27.59C124.411 27.301 124.504 27.0178 124.682 26.7902C124.86 26.5627 125.113 26.4055 125.396 26.3463C125.804 26.2698 126.216 26.2156 126.63 26.1837H126.873C126.76 24.2246 126.516 20.0462 126.378 17.5993L125.72 17.9489C125.523 18.0553 125.3 18.1048 125.077 18.0919C124.853 18.079 124.637 18.0041 124.454 17.8757C124.062 17.5897 123.691 17.2773 123.341 16.9409C123.122 16.7295 122.895 16.5182 122.651 16.3231C122.405 16.1274 122.243 15.8438 122.201 15.5316C122.158 15.2194 122.238 14.903 122.424 14.6485C123.163 13.6324 123.983 12.6975 124.778 11.8033C125.306 11.2018 125.858 10.5758 126.402 9.94987C126.578 9.72202 126.833 9.56833 127.117 9.51903C129.378 9.06036 131.672 8.78847 133.978 8.70612C134.291 8.69476 134.596 8.8053 134.829 9.01451C135.062 9.22372 135.205 9.51529 135.228 9.82793L135.407 12.0716C135.756 16.5426 136.056 20.4527 136.69 24.9481C136.797 24.9382 136.903 24.9191 137.006 24.8912C137.178 24.8383 137.36 24.824 137.538 24.8492C137.716 24.8745 137.887 24.9388 138.038 25.0375C138.188 25.1355 138.314 25.266 138.406 25.4194C138.499 25.5727 138.556 25.7451 138.573 25.9236C138.675 26.825 138.824 27.7204 139.02 28.6061C139.071 28.7707 139.086 28.9442 139.065 29.1151C139.044 29.286 138.987 29.4506 138.898 29.5979C138.809 29.7426 138.691 29.8672 138.551 29.9637C138.411 30.0603 138.253 30.1267 138.086 30.1588C134.79 30.7685 131.282 31.2644 127.028 31.7196C126.893 31.7407 126.758 31.7516 126.622 31.7521ZM126.963 28.6061C126.963 28.8338 127.019 29.0614 127.052 29.2727C130.576 28.8907 133.547 28.4598 136.373 27.9965C136.373 27.8095 136.308 27.6307 136.284 27.4518H135.991H135.707C135.398 27.4778 135.09 27.3846 134.847 27.1912C134.604 26.9978 134.444 26.7188 134.4 26.4113C133.645 21.3469 133.32 17.1197 132.939 12.2341L132.857 11.1692C131.223 11.275 129.597 11.4759 127.986 11.7708C127.539 12.3154 127.068 12.8438 126.622 13.3966C126.175 13.9494 125.566 14.5916 125.079 15.1931L125.306 15.4045L126.93 14.5428C127.223 14.3977 127.56 14.3715 127.872 14.4696C128.182 14.5742 128.438 14.796 128.586 15.0875C128.692 15.3069 128.692 15.3069 129.398 27.1023C129.413 27.3781 129.333 27.6506 129.172 27.8751C129.011 28.0996 128.779 28.2628 128.513 28.3379C128.009 28.4889 127.488 28.5816 126.963 28.6143V28.6061Z" fill="#525D7D"/>
</svg>
