<svg width="110" height="104" viewBox="0 0 110 104" fill="none" xmlns="http://www.w3.org/2000/svg">
<g clip-path="url(#clip0)">
<path d="M93.9736 63.7315C94.4415 64.0016 94.8464 63.3855 94.5274 63.0093C92.5284 60.6433 90.1462 58.8841 87.6176 57.1226C86.1002 55.992 84.477 55.0108 82.7707 54.1927C82.9626 53.9349 83.1676 53.6872 83.3851 53.4507L83.4933 53.3486C85.0137 53.3004 86.5341 53.431 88.0234 53.7377C89.2726 54.0477 90.5397 54.4118 91.7694 54.8312C92.3115 55.1687 92.8984 55.4282 93.513 55.602C94.2565 56.4371 94.9873 57.55 96.0373 57.712C96.1094 57.7286 96.1848 57.7222 96.2532 57.6939C96.3215 57.6655 96.3794 57.6166 96.4187 57.5538C97.1174 56.1257 95.6861 54.4822 94.7233 53.5151C94.2056 52.99 93.6453 52.5088 93.0481 52.0763C92.0054 51.0625 90.8854 50.1317 89.6982 49.2923C88.6006 48.4848 87.2907 48.0164 85.9295 47.9444C85.2559 47.5284 84.5517 47.164 83.823 46.8544C83.642 46.7658 83.4407 46.7265 83.2395 46.7406C83.0383 46.7546 82.8442 46.8216 82.6769 46.9346C82.5095 47.0476 82.3748 47.2027 82.2863 47.3843C82.1978 47.5659 82.1586 47.7676 82.1727 47.969C81.7208 48.4695 81.3141 49.009 80.9573 49.5813C79.4177 50.8928 78.218 52.5578 77.4609 54.4337C76.8261 55.8933 76.4086 57.4125 75.8801 58.906C75.3516 60.3995 74.5059 61.836 74.04 63.3821C74.0362 63.4119 74.0301 63.4414 74.0219 63.4703C73.7247 64.0609 73.4233 64.6492 73.1261 65.2398C72.7766 65.8524 72.5474 66.526 72.4509 67.2244C72.2838 67.3527 72.1166 67.4811 71.9478 67.603C70.3077 68.7947 72.2851 71.1318 73.5617 69.7357C73.6752 69.6148 73.7741 69.4909 73.873 69.367L73.914 69.3907C73.9026 69.7239 73.9976 70.0518 74.1852 70.3268C74.3728 70.6017 74.6433 70.8095 74.9572 70.9198C76.3703 71.4386 77.8147 71.8678 79.282 72.2048C80.4122 72.7258 81.5799 73.1617 82.7752 73.5087C83.0308 73.5986 83.3091 73.601 83.5666 73.5154C83.824 73.4297 84.0458 73.261 84.1973 73.0356C84.7098 73.0957 85.227 73.1475 85.7203 73.1746C85.8532 73.189 85.987 73.1548 86.0969 73.0783C86.2069 73.0019 86.2856 72.8883 86.3186 72.7584C86.3516 72.6286 86.3366 72.4913 86.2765 72.3718C86.2163 72.2523 86.115 72.1587 85.9912 72.1082C85.3976 71.8349 84.8021 71.5679 84.2049 71.3071C84.0287 71.0538 83.7748 70.8649 83.4815 70.7689C80.9502 69.8231 78.8375 68.0088 77.5191 65.6485C77.4347 65.5002 77.3274 65.3661 77.2014 65.2512C77.7691 64.7776 78.2633 64.2219 78.6675 63.6026C79.5528 63.8888 80.419 64.208 81.2769 64.5607C81.9553 65.3349 82.6958 66.0522 83.4911 66.7055C83.7829 66.8994 84.1377 66.9742 84.4832 66.9148C84.8287 66.8554 85.1387 66.6662 85.35 66.3859C87.1102 67.2322 88.862 68.112 90.6471 68.9342C90.7401 68.9753 90.8451 68.9805 90.9418 68.9488C91.0386 68.9171 91.1203 68.8508 91.1713 68.7625C91.2222 68.6742 91.2388 68.5703 91.2179 68.4707C91.197 68.371 91.14 68.2827 91.0578 68.2227C89.0861 66.8046 87.0888 65.4212 85.0933 64.0442C84.2543 63.1623 83.2483 62.4566 82.1336 61.9681C82.1322 61.6823 82.0607 61.4014 81.9252 61.1501C81.7898 60.8988 81.5946 60.6848 81.3569 60.5271L81.2994 60.4939L81.2461 60.4631L81.0584 60.267L80.9763 60.2196L80.935 60.13C80.8773 60.0309 80.8173 59.9359 80.7685 59.8309C80.6622 59.5681 80.6051 59.288 80.6 59.0044C80.725 58.6268 80.8482 58.2428 80.9796 57.8636C82.7884 58.4362 84.6865 58.7973 86.4527 59.51C89.1316 60.5467 91.5602 62.2065 93.9736 63.7315Z" fill="#FFD15C"/>
<path d="M73.1533 71.5233C72.8332 71.2107 72.4192 71.0121 71.9749 70.9582C70.2818 69.7777 65.1742 65.8966 65.2942 65.5656C65.3558 65.4097 65.3834 65.2425 65.3753 65.0751C65.3672 64.9078 65.3235 64.7442 65.2471 64.5952C65.9457 65.1857 66.7055 65.6998 67.5135 66.1286C68.1221 66.5837 68.7603 66.998 69.4239 67.3686C71.1083 68.3082 72.6256 65.6802 70.9269 64.7653C67.6585 63.0153 65.3643 60.0896 62.459 57.8528C59.8073 55.8119 56.8017 54.3837 53.7202 53.0871C49.2739 51.2165 44.2766 48.6987 39.4874 50.4357C39.5976 50.0989 39.7398 49.7733 39.9119 49.4635C40.047 49.1631 39.6774 48.7797 39.4212 49.0814C38.8633 49.7336 38.3514 50.4239 37.8893 51.1472C37.8314 51.2469 37.7976 51.3587 37.7905 51.4737C37.7833 51.5887 37.8031 51.7038 37.8482 51.8097C37.8933 51.9156 37.9625 52.0095 38.0503 52.0838C38.1381 52.1582 38.242 52.2109 38.3538 52.238L38.4573 52.2483C38.0786 52.5087 37.725 52.8039 37.4011 53.1301C37.4762 52.8633 37.5242 52.5897 37.5443 52.3134C37.587 52.1352 37.6256 51.9546 37.6659 51.7805C37.7736 51.3726 37.7451 50.9409 37.5848 50.5513C37.4244 50.1617 37.141 49.8355 36.7778 49.6226C36.2438 48.8759 35.4989 48.3061 34.6386 47.9862C33.7784 47.6664 32.8418 47.611 31.9489 47.8272C30.6841 48.1224 30.2992 49.4904 30.65 50.5319C28.9671 52.5654 27.2437 54.9154 26.2975 57.1987C25.132 60.0134 28.1621 60.8306 30.2331 62.0482C31.2098 62.6121 32.2421 62.0182 32.5937 61.0586C33.3523 58.9961 34.4905 57.0814 35.3206 55.0656C35.6069 55.0485 35.8869 54.9731 36.1433 54.8441C36.1148 54.8935 36.084 54.947 36.0531 55.0004C35.7741 55.251 35.5103 55.518 35.2631 55.8001C35.0236 56.0729 34.8546 56.4004 34.7708 56.7536C34.6871 57.1068 34.6912 57.4751 34.7829 57.826C34.4212 58.2813 34.1028 58.7694 33.8318 59.2838C33.7386 59.4625 33.7111 59.6682 33.7541 59.8649C33.797 60.0615 33.9076 60.2367 34.0665 60.3599C34.2255 60.483 34.4227 60.5462 34.6237 60.5385C34.8248 60.5308 35.0168 60.4526 35.1664 60.3176C35.5157 60.0339 35.8342 59.7142 36.1166 59.3637C36.3947 59.4602 36.691 59.4932 36.9837 59.4601C37.2765 59.427 37.5582 59.3287 37.8083 59.1724C40.4002 57.6967 42.4671 56.543 45.5208 56.2387C48.7688 55.8964 52.0472 56.44 55.0084 57.812C58.4543 59.3683 61.4635 61.5389 64.3799 63.9081C64.0779 63.7745 63.7388 63.7503 63.4205 63.8397C63.1023 63.9292 62.8249 64.1267 62.636 64.3983C60.45 66.6019 63.7361 69.0036 65.2988 70.4762C66.0103 71.1392 66.8578 72.1165 67.8069 72.9935C65.4622 76.1638 62.3099 79.0269 59.3783 81.5458C56.5903 83.9392 53.5188 86.454 49.6551 86.351C48.6503 86.3192 48.6673 87.8535 49.6579 87.91C53.9025 88.1397 57.6428 86.1535 60.957 83.6636C63.4282 81.8002 65.6533 79.9647 67.1785 77.6263C67.4121 77.8435 67.7137 77.973 68.0322 77.993C68.3507 78.013 68.6665 77.9222 68.9262 77.736C69.8284 76.9523 70.6292 76.0588 71.3099 75.0763C71.336 75.0311 71.3622 74.9858 71.3883 74.9406C71.8274 74.9561 72.2641 74.8659 72.6617 74.6778C72.9306 74.5279 73.1619 74.3187 73.338 74.0659C73.514 73.8132 73.6302 73.5237 73.6776 73.2194C73.7251 72.9151 73.7025 72.6042 73.6116 72.3103C73.5207 72.0163 73.364 71.7472 73.1533 71.5233ZM68.6937 74.509C68.7636 74.3026 68.823 74.0956 68.8806 73.8821L69.1612 74.088C69.0204 74.237 68.8632 74.3766 68.7265 74.528L68.6937 74.509Z" fill="#C3E5FE"/>
<path d="M37.9234 35.6975C38.2853 34.881 38.7829 34.0003 38.1238 33.2085C37.8264 32.8613 37.2797 33.1543 37.2674 33.564C37.2586 33.7783 36.4367 34.5102 36.2786 34.6986L36.2264 34.7891C36.1938 34.496 36.0729 34.22 35.8796 33.9977C35.6864 33.7755 35.43 33.6175 35.1446 33.5448C34.7561 33.4485 34.345 33.5085 33.9995 33.7118C33.654 33.9152 33.4016 34.2458 33.2963 34.6328C33.1248 35.5209 33.0119 36.4193 32.9584 37.3221C32.9254 37.7062 32.9146 38.0918 32.9262 38.477L32.9071 38.6524C32.8818 38.9501 32.9682 39.2464 33.1496 39.4833C33.2406 39.6603 33.3608 39.8205 33.5051 39.9573C33.7515 40.2014 34.0835 40.3394 34.4304 40.342C34.7773 40.3447 35.1118 40.2117 35.3628 39.9715C35.377 39.9468 35.3889 39.9263 35.4008 39.9057C35.5253 39.8494 35.6371 39.7685 35.7296 39.6678C36.8018 38.5595 37.3078 37.0859 37.9234 35.6975Z" fill="#C3E5FE"/>
<path d="M30.0438 62.9258C28.2422 61.9213 26.5319 60.7614 24.9322 59.4592C24.8069 59.3538 24.7221 59.2081 24.6924 59.0469C24.6627 58.8857 24.6899 58.7191 24.7693 58.5755C33.8507 42.0595 43.0263 25.7405 51.6389 10.4344C51.6881 10.3488 51.7543 10.2742 51.8335 10.2154C51.9128 10.1565 52.0032 10.1146 52.0993 10.0923C52.1954 10.0701 52.295 10.0679 52.3918 10.0859C52.4887 10.104 52.5808 10.1419 52.6623 10.1972C54.6191 11.5464 56.2155 12.5722 57.7462 13.456L58.2755 13.7616C58.4162 13.8395 58.5263 13.963 58.5877 14.1118C59.7003 16.838 60.626 19.2149 61.4415 21.3089C65.9605 32.9002 67.0353 35.6539 77.5572 41.7287C79.5762 42.8944 81.7131 44.0075 83.7697 45.0797C85.8262 46.1519 87.9778 47.268 89.9763 48.4218L90.3005 48.609C93.0089 50.1727 96.7187 52.3145 97.7996 56.3275C98.5704 59.1908 97.8251 62.6045 95.5955 66.4664C90.5473 75.2101 82.6215 76.7978 72.6947 71.0665C70.0713 69.4696 67.5802 67.6646 65.2454 65.6689C62.9017 63.7674 60.7015 61.9488 58.2188 60.5154C49.2564 55.3409 39.1749 58.53 33.2716 62.8317C33.1187 62.9381 32.9304 62.9804 32.747 62.9495C32.5636 62.9186 32.3998 62.817 32.2906 62.6665C32.1814 62.5159 32.1356 62.3284 32.1629 62.1441C32.1903 61.9599 32.2886 61.7936 32.4369 61.6808C40.6652 55.6835 51.0685 54.742 58.9311 59.2815C61.4752 60.8424 63.8907 62.6037 66.1547 64.5488C68.428 66.5002 70.8531 68.267 73.4071 69.8327C82.6773 75.1849 89.7175 73.8042 94.3644 65.7556C96.3993 62.231 97.0721 59.1702 96.4262 56.6971C95.5022 53.2463 92.0856 51.2792 89.5882 49.8428L89.264 49.6556C87.2778 48.5089 85.1614 47.4076 83.113 46.3402C81.0647 45.2727 78.9049 44.1519 76.853 42.9672C65.9085 36.6484 64.6829 33.5115 60.1349 21.8377C59.3431 19.8068 58.4464 17.5124 57.3785 14.8888C55.8848 14.0264 54.3457 13.072 52.51 11.8257C44.1022 26.7675 35.1706 42.6735 26.3214 58.7588C27.7292 59.8501 29.2162 60.8351 30.7701 61.7056L31.9397 62.3808C32.1023 62.4747 32.2218 62.6285 32.2727 62.8094C32.3236 62.9904 32.3018 63.1842 32.212 63.3496C32.1182 63.5098 31.9656 63.6271 31.7868 63.6765C31.6081 63.7259 31.4172 63.7036 31.255 63.6142L30.0438 62.9258Z" fill="#525D7D"/>
<path d="M31.2262 63.5977C31.0657 63.5051 30.9478 63.3533 30.8976 63.1748C30.8474 62.9963 30.8688 62.805 30.9573 62.6418C34.13 56.758 37.2763 50.7494 40.3298 44.9394C45.6894 34.7085 51.2461 24.1362 57.0699 13.8882C57.1643 13.7245 57.3198 13.6051 57.502 13.556C57.6842 13.507 57.8783 13.5324 58.0416 13.6266C58.2048 13.7209 58.3239 13.8763 58.3725 14.0586C58.4212 14.241 58.3954 14.4353 58.301 14.5989C52.485 24.8241 46.9436 35.3887 41.5805 45.6067C38.5311 51.419 35.3801 57.4359 32.2051 63.3238C32.1589 63.4063 32.0968 63.4789 32.0225 63.5374C31.9482 63.5959 31.8632 63.6391 31.7722 63.6645C31.6812 63.69 31.5861 63.6972 31.4924 63.6857C31.3987 63.6742 31.3082 63.6443 31.2262 63.5977Z" fill="#525D7D"/>
<path d="M49.117 88.9794C47.1964 87.8705 44.5443 84.2665 45.8242 82.0497C45.8827 81.9475 45.9661 81.8617 46.0666 81.8004C46.1463 81.7477 54.5633 76.4186 62.984 63.0088C63.0337 62.9295 63.0985 62.8607 63.1748 62.8064C63.251 62.7522 63.3371 62.7134 63.4282 62.6925C63.5193 62.6715 63.6137 62.6687 63.7058 62.6842C63.7979 62.6997 63.8861 62.7333 63.9652 62.7829C64.0443 62.8325 64.1129 62.8973 64.1669 62.9735C64.221 63.0497 64.2595 63.1359 64.2803 63.2271C64.3011 63.3182 64.3037 63.4126 64.288 63.5049C64.2723 63.5972 64.2387 63.6855 64.1889 63.7648C56.1515 76.5678 48.2882 82.0466 46.9875 82.8969C46.4676 84.2144 48.3643 86.8997 49.8293 87.7455C52.1561 89.0889 62.4024 84.657 74.5437 71.0482C74.6695 70.907 74.846 70.8216 75.0345 70.8106C75.1278 70.8051 75.2213 70.8181 75.3095 70.8489C75.3977 70.8796 75.479 70.9274 75.5487 70.9896C75.6184 71.0518 75.6752 71.1272 75.7158 71.2114C75.7563 71.2957 75.7799 71.3871 75.7852 71.4805C75.7904 71.5739 75.7773 71.6675 75.7464 71.7559C75.7156 71.8443 75.6676 71.9258 75.6053 71.9957C70.2663 77.9831 64.5167 83.0042 59.4283 86.1313C54.6685 89.0588 51.0006 90.0668 49.117 88.9794Z" fill="#525D7D"/>
<path d="M96.2598 63.2308C83.0462 55.1084 83.4974 54.327 83.8939 53.6401C85.1358 51.4892 90.9166 54.7445 91.5731 55.1235C92.7181 55.7846 93.836 56.5397 94.9218 57.2653C95.8195 57.8713 96.7499 58.4962 97.6819 59.0617C97.7618 59.11 97.8314 59.1736 97.8867 59.2488C97.942 59.3241 97.982 59.4096 98.0043 59.5003C98.0265 59.5911 98.0307 59.6854 98.0166 59.7779C98.0024 59.8704 97.9703 59.9592 97.9219 60.0392C97.8753 60.1213 97.8126 60.193 97.7375 60.25C97.6624 60.307 97.5765 60.3481 97.4851 60.3708C97.3936 60.3935 97.2985 60.3972 97.2057 60.3818C97.1128 60.3664 97.0241 60.3322 96.9449 60.2813C95.9724 59.7198 95.0373 59.0648 94.1274 58.4517C93.0645 57.7339 91.9647 56.9947 90.8608 56.3574C88.9649 55.2628 86.6104 54.375 85.5675 54.3048C86.9339 55.5488 91.4157 58.5806 96.9933 61.9982C97.1565 62.0925 97.2756 62.2479 97.3242 62.4302C97.3729 62.6125 97.3471 62.8069 97.2527 62.9705C97.1582 63.1341 97.0028 63.2536 96.8205 63.3026C96.6383 63.3517 96.4442 63.3263 96.2809 63.232L96.2598 63.2308Z" fill="#525D7D"/>
<path d="M92.8928 69.271C80.5745 61.7587 80.1152 60.1281 80.7564 59.0177C81.5162 57.7016 86.2964 59.7047 88.5657 61.0149C90.1087 61.9057 91.6249 62.9566 93.0943 63.9749C93.8425 64.4892 94.5883 65.0075 95.3436 65.5094C95.4216 65.5609 95.4887 65.6273 95.5411 65.7049C95.5934 65.7824 95.63 65.8696 95.6486 65.9613C95.6673 66.053 95.6677 66.1476 95.6499 66.2396C95.6321 66.3316 95.5963 66.4192 95.5447 66.4974C95.4931 66.5756 95.4266 66.6429 95.349 66.6954C95.2715 66.748 95.1844 66.7847 95.0927 66.8036C95.001 66.8225 94.9066 66.8231 94.8147 66.8054C94.7229 66.7877 94.6354 66.7521 94.5574 66.7006C93.7939 66.1939 93.0358 65.6685 92.2794 65.1495C90.8387 64.1478 89.3406 63.1129 87.851 62.2528C86.1269 61.216 84.2446 60.4682 82.2786 60.0391C82.9656 60.8964 85.364 63.0159 93.6028 68.0413C93.766 68.1355 93.8851 68.2909 93.9337 68.4733C93.9824 68.6556 93.9566 68.85 93.8622 69.0136C93.7677 69.1772 93.6123 69.2967 93.43 69.3457C93.2478 69.3947 93.0537 69.3693 92.8904 69.2751L92.8928 69.271Z" fill="#525D7D"/>
<path d="M87.9236 73.3006C77.4917 66.7952 77.1675 65.3193 77.773 64.2706C78.5328 62.9545 83.313 64.9576 85.5823 66.2678C87.1253 67.1587 88.6415 68.2095 90.1133 69.2238C90.6042 69.5675 91.1017 69.9096 91.5973 70.2451C91.6748 70.2977 91.741 70.3651 91.7924 70.4434C91.8437 70.5217 91.8791 70.6094 91.8966 70.7014C91.9141 70.7935 91.9132 70.8882 91.8942 70.98C91.8751 71.0718 91.8382 71.159 91.7855 71.2366C91.7328 71.3142 91.6653 71.3806 91.587 71.4322C91.5087 71.4837 91.4211 71.5194 91.3291 71.537C91.2371 71.5547 91.1425 71.554 91.0508 71.5351C90.9592 71.5162 90.8721 71.4794 90.7947 71.4268L89.3048 70.3966C87.8577 69.3966 86.3596 68.3617 84.87 67.5016C83.1453 66.4666 81.2644 65.7177 79.3 65.2838C79.9355 66.0785 81.9808 67.9283 88.677 72.0905C88.7571 72.1385 88.8269 72.2019 88.8824 72.277C88.938 72.352 88.9782 72.4374 89.0008 72.528C89.0233 72.6187 89.0279 72.713 89.014 72.8055C89.0002 72.898 88.9683 72.9869 88.9202 73.0672C88.8721 73.1474 88.8087 73.2174 88.7336 73.2732C88.6585 73.3289 88.5732 73.3693 88.4826 73.3921C88.3919 73.4149 88.2977 73.4196 88.2053 73.4059C88.113 73.3923 88.0242 73.3605 87.9442 73.3125L87.9236 73.3006Z" fill="#525D7D"/>
<path d="M70.1824 69.457C70.0252 69.3651 69.9094 69.2162 69.8588 69.0411C69.8082 68.866 69.8267 68.678 69.9105 68.5159C72.913 62.671 75.8657 56.6657 78.7257 50.8592C79.7152 48.8421 80.7066 46.8281 81.6999 44.8169C81.7835 44.647 81.931 44.5172 82.11 44.456C82.289 44.3948 82.4848 44.4072 82.6543 44.4906C82.8239 44.5739 82.9533 44.7214 83.0141 44.9004C83.0749 45.0795 83.0621 45.2756 82.9785 45.4455C81.9863 47.4609 80.9941 49.4764 80.0019 51.4918C77.1461 57.3007 74.1844 63.3118 71.1772 69.165C71.1349 69.2483 71.0766 69.3225 71.0056 69.3833C70.9346 69.444 70.8523 69.4901 70.7634 69.5189C70.6746 69.5476 70.581 69.5585 70.488 69.5508C70.395 69.5432 70.3045 69.5171 70.2217 69.4742L70.1824 69.457Z" fill="#525D7D"/>
<path d="M34.2116 42.9699C34.1008 42.9053 34.009 42.8126 33.9454 42.7011C33.2431 41.4347 31.1153 36.9983 33.3544 33.12C34.9833 30.2986 38.3073 28.4175 42.0303 28.2145C42.2197 28.2031 42.4057 28.2676 42.5474 28.3936C42.6891 28.5196 42.7748 28.6969 42.7858 28.8865C42.7968 29.0761 42.7321 29.2624 42.6059 29.4045C42.4798 29.5466 42.3025 29.6328 42.1131 29.6442C38.9125 29.8143 35.9638 31.4624 34.5938 33.8355C33.1121 36.4018 33.9221 39.7374 35.1959 42.0138C35.2697 42.1496 35.2972 42.3058 35.2744 42.4589C35.2515 42.612 35.1795 42.7535 35.0692 42.8621C34.9589 42.9707 34.8163 43.0404 34.663 43.0607C34.5098 43.081 34.3542 43.0508 34.2198 42.9747L34.2116 42.9699Z" fill="#525D7D"/>
<path d="M33.5433 22.766C33.392 22.6775 33.2788 22.536 33.2255 22.3687C32.7043 20.8485 32.1046 19.3565 31.429 17.8987C30.7631 16.4175 30.087 14.8592 29.5715 13.2784C29.5247 13.1026 29.5471 12.9153 29.6339 12.7552C29.7207 12.5951 29.8654 12.4742 30.0383 12.4174C30.2112 12.3607 30.3992 12.3723 30.5635 12.45C30.7278 12.5277 30.856 12.6655 30.9218 12.8351C31.4422 14.3566 32.0411 15.85 32.7159 17.3092C33.3819 18.7904 34.0603 20.3447 34.5758 21.9254C34.6209 22.0625 34.6234 22.2101 34.5828 22.3488C34.5422 22.4874 34.4604 22.6105 34.3484 22.7017C34.2364 22.7929 34.0994 22.8478 33.9556 22.8593C33.8118 22.8708 33.668 22.8383 33.5433 22.766Z" fill="#525D7D"/>
<path d="M26.3455 28.0588C24.6476 27.0143 23.0464 25.82 21.5609 24.4903C21.4146 24.3666 21.3235 24.1897 21.3077 23.9986C21.2919 23.8074 21.3525 23.6176 21.4764 23.471C21.6002 23.3243 21.7771 23.2328 21.9681 23.2166C22.1591 23.2004 22.3486 23.2607 22.4948 23.3845C23.9209 24.6585 25.4567 25.804 27.0844 26.8075C27.7364 27.1903 28.422 27.5127 29.1327 27.7707C29.3071 27.8415 29.4465 27.9784 29.5206 28.1515C29.5948 28.3247 29.5977 28.5202 29.5288 28.6958C29.4649 28.8703 29.335 29.0127 29.1672 29.0924C28.9994 29.172 28.8072 29.1823 28.6321 29.1213C27.8384 28.8391 27.0729 28.4834 26.3455 28.0588Z" fill="#525D7D"/>
<path d="M16.7895 34.8963C16.6859 34.8367 16.5993 34.7515 16.5379 34.6489C16.4765 34.5462 16.4423 34.4295 16.4387 34.3099C16.4263 34.1216 16.4891 33.936 16.6133 33.7939C16.7374 33.6517 16.9128 33.5645 17.1008 33.5516C18.0538 33.4931 19.0087 33.4028 20.0148 33.3092C21.7422 33.1604 23.4838 32.987 25.287 32.9532C25.4692 32.9594 25.642 33.0354 25.7696 33.1656C25.8972 33.2957 25.9699 33.47 25.9726 33.6525C25.9754 33.835 25.9081 34.0118 25.7846 34.1462C25.661 34.2807 25.4907 34.3626 25.3088 34.3751C23.5608 34.4078 21.8311 34.5607 20.143 34.7267C19.171 34.8181 18.1649 34.9117 17.1925 34.9754C17.0533 34.9888 16.9133 34.9613 16.7895 34.8963Z" fill="#525D7D"/>
</g>
<defs>
<clipPath id="clip0">
<rect width="85.7009" height="70" fill="white" transform="translate(35) rotate(30)"/>
</clipPath>
</defs>
</svg>
