<svg width="74" height="79" viewBox="0 0 74 79" fill="none" xmlns="http://www.w3.org/2000/svg">
<g clip-path="url(#clip0)">
<path d="M65.4674 12.1217C65.1855 9.50515 61.3256 9.37997 61.248 12.1217V12.2266C60.7987 12.3114 60.3535 12.4043 59.9124 12.5174C57.7108 12.9736 55.4765 13.6681 53.7365 14.8391C53.6357 14.8985 53.5506 14.9808 53.4883 15.0792C53.4261 15.1775 53.3884 15.2891 53.3784 15.4048C53.3684 15.5204 53.3864 15.6367 53.431 15.744C53.4755 15.8514 53.5452 15.9468 53.6344 16.0222C53.5393 16.3 53.5494 16.6026 53.6628 16.8736C53.7762 17.1446 53.9853 17.3658 54.2512 17.496C54.6996 17.719 55.1901 17.8474 55.6914 17.8732C56.1928 17.8989 56.694 17.8213 57.1634 17.6454L56.3465 18.6872C55.5296 19.7531 56.6733 21.0331 57.7598 21.1099C58.2161 21.141 58.6735 21.0663 59.0954 20.8918C59.0954 20.9322 59.075 20.9726 59.0668 21.0089C58.7115 22.624 60.5046 23.8637 61.7627 23.2782C62.0334 23.3951 62.3254 23.4564 62.6209 23.4583C62.9163 23.4603 63.2091 23.4029 63.4815 23.2896C63.7538 23.1763 64 23.0095 64.2052 22.7993C64.4103 22.5891 64.5702 22.3399 64.675 22.0668C65.2019 20.5365 65.1283 18.8608 65.2019 17.2618L65.2386 16.426C65.7451 15.0854 65.6103 13.4986 65.4674 12.1217Z" fill="#FFD15C"/>
<path d="M25.1691 61.2822C23.7186 59.6058 22.0735 58.1041 20.2676 56.8082C20.1094 56.6886 19.9287 56.6013 19.736 56.5514C19.5433 56.5014 19.3425 56.4898 19.1453 56.5172C18.948 56.5447 18.7583 56.6106 18.587 56.7111C18.4158 56.8117 18.2664 56.9449 18.1477 57.103C17.1061 56.461 16.4036 56.461 15.1782 56.2954C14.8596 56.251 14.4226 56.5902 14.684 56.9294C15.2354 57.6481 15.5663 58.4193 16.2075 59.0654C17.0245 59.8729 17.87 60.6805 18.691 61.4881C20.2323 63.103 21.8778 64.6176 23.6169 66.0226C24.4338 66.6525 25.9778 66.8301 26.5047 65.6551C27.3216 63.8341 26.3495 62.6712 25.1691 61.2822Z" fill="#FFD15C"/>
<path d="M63.131 25.9752C63.1286 25.8647 63.0865 25.7588 63.0121 25.6763C62.9378 25.5938 62.8362 25.5402 62.7255 25.5251C62.6148 25.51 62.5023 25.5345 62.4081 25.594C62.314 25.6536 62.2445 25.7443 62.212 25.85C60.8232 29.1368 58.6625 32.3105 56.804 35.3429C55.0109 38.2865 53.2627 41.2624 51.1632 44.0121C46.6294 49.9518 40.6904 54.89 32.9297 55.3181C32.381 55.346 31.8521 55.5296 31.4062 55.847C30.6117 55.9407 29.8127 55.9933 29.0126 56.0045C27.4692 55.977 25.9296 55.842 24.4053 55.6007C23.1799 55.4432 21.8932 55.7138 20.7291 55.4836C20.6337 55.4596 20.5336 55.4605 20.4387 55.4863C20.3437 55.5121 20.2572 55.5618 20.1876 55.6306C20.118 55.6995 20.0677 55.785 20.0416 55.8789C20.0155 55.9727 20.0146 56.0717 20.0389 56.166C21.2642 60.3451 24.3399 61.2496 28.5429 61.5C30.3765 61.6135 32.2168 61.5608 34.0407 61.3425C42.3487 61.7745 49.9705 55.5765 55.0762 49.6005C57.8823 46.3177 60.4188 42.6433 61.8811 38.5611C63.376 34.3375 63.3189 30.3562 63.131 25.9752Z" fill="#C3E5FE"/>
<path d="M43.6803 18.5337C43.415 18.2762 43.0718 18.1116 42.7031 18.0649C42.3344 18.0182 41.9603 18.0921 41.638 18.2753C40.9827 18.7468 40.4906 19.4067 40.2288 20.165C40.0695 20.1461 39.9079 20.1596 39.7541 20.2048C39.6003 20.2499 39.4574 20.3257 39.3343 20.4274C38.8213 20.8315 38.2747 21.1921 37.7005 21.5055C37.435 21.6509 37.1572 21.772 36.8836 21.9093C36.5343 22.1184 36.2178 22.3769 35.9441 22.6765C35.8003 22.813 35.6923 22.9821 35.6296 23.1691C35.5142 23.15 35.3958 23.1625 35.2871 23.2052C35.1783 23.2479 35.0835 23.3192 35.0128 23.4114L34.4859 24.0494L34.441 24.114C33.8633 24.1691 33.2919 24.2759 32.7337 24.433C31.6921 24.7479 31.6798 25.9512 32.4559 26.5407C35.0823 28.5354 38.5541 28.1558 41.1478 26.25C43.2228 24.7439 45.9758 20.8393 43.6803 18.5337Z" fill="#C3E5FE"/>
<path d="M45.212 58.8674C43.5782 59.0572 42.5897 60.0223 41.2214 60.8581C40.0532 61.5687 38.9504 62.1098 38.0967 63.2041C38.0183 63.2854 37.9593 63.383 37.9239 63.4897C37.8885 63.5965 37.8777 63.7097 37.8922 63.8211C37.9066 63.9325 37.9461 64.0393 38.0076 64.1337C38.0691 64.2282 38.1512 64.3078 38.2478 64.3669C38.6909 64.6092 39.1733 64.7731 39.6733 64.8515C39.804 66.402 39.9593 67.9364 40.1145 69.4909C40.3024 71.3322 40.2533 73.3269 40.8824 75.0793C41.1887 75.9313 42.5815 76.1009 42.8103 75.0793C43.521 71.8854 42.5244 68.0575 41.2622 64.8757C41.7109 64.8197 42.1556 64.7361 42.5938 64.6254C44.2685 64.2216 46.1841 63.6684 47.0868 62.1179C47.8588 60.8298 46.8989 58.6696 45.212 58.8674Z" fill="#C3E5FE"/>
<path d="M19.2097 37.6849C19.2634 37.5927 19.2815 37.4843 19.2606 37.3798C19.2397 37.2753 19.1812 37.1819 19.0959 37.1169C19.0107 37.0518 18.9044 37.0195 18.7969 37.026C18.6894 37.0324 18.5879 37.0772 18.5112 37.1519C18.2294 37.4104 17.968 37.6809 17.6943 37.9595C17.5425 37.9269 17.3839 37.9498 17.2479 38.0241C17.1119 38.0983 17.0079 38.2189 16.955 38.3633C16.9019 38.5329 16.8447 38.6984 16.7875 38.864C15.4315 40.2651 14.1612 41.7147 12.8214 43.1764C12.172 43.883 11.9555 45.2478 12.8214 45.9261C13.8385 46.7337 14.9495 47.198 16.2239 46.7095C17.6535 46.1603 18.1191 44.8844 17.825 43.4792C17.8125 43.4243 17.7961 43.3703 17.776 43.3177C17.939 42.1867 18.0386 41.0476 18.0742 39.9057C18.4418 39.1264 18.8257 38.3875 19.2097 37.6849Z" fill="#C3E5FE"/>
<path d="M31.6309 63.5432C21.9464 63.5432 16.6119 58.6655 16.6119 49.8146C16.6119 38.9609 22.1792 29.678 33.1626 22.2161C43.8233 14.9722 56.8898 11.2534 65.978 9.40407C66.1214 9.3784 66.2687 9.38389 66.4098 9.42015C66.5509 9.4564 66.6823 9.52256 66.7949 9.61404C66.9109 9.7076 67.0039 9.826 67.0669 9.96031C67.1299 10.0946 67.1612 10.2413 67.1584 10.3893C66.6642 36.8451 55.4765 63.5432 31.6309 63.5432ZM65.1488 11.5885C52.7236 14.2737 18.6093 24.021 18.6093 49.8065C18.6093 57.6116 22.992 61.5687 31.6309 61.5687C53.7569 61.5687 64.34 36.6836 65.1488 11.5885Z" fill="#525D7D"/>
<path d="M24.4339 68.3119C24.2053 68.3118 23.9835 68.2349 23.8048 68.0939C21.2397 66.0508 19.0055 63.5958 16.8611 61.2296C15.5949 59.8365 14.2837 58.4031 12.9236 57.0585C12.8239 56.9599 12.7465 56.8416 12.6964 56.7113C12.6462 56.581 12.6245 56.4418 12.6326 56.3026C12.6407 56.1635 12.6784 56.0276 12.7434 55.9039C12.8083 55.7802 12.8989 55.6714 13.0093 55.5847C14.4308 54.4743 15.8685 53.3639 17.2695 52.2333C17.3707 52.1435 17.4892 52.075 17.618 52.032C17.7468 51.989 17.8831 51.9724 18.0186 51.9832C18.1541 51.994 18.2859 52.0319 18.4061 52.0947C18.5263 52.1576 18.6322 52.2439 18.7175 52.3485C18.8028 52.4532 18.8656 52.5739 18.9022 52.7033C18.9387 52.8328 18.9482 52.9682 18.93 53.1014C18.9119 53.2346 18.8665 53.3627 18.7966 53.4779C18.7267 53.5932 18.6338 53.6932 18.5235 53.7717C17.388 54.6735 16.2538 55.5659 15.1211 56.4488C16.2361 57.5875 17.3063 58.7665 18.3479 59.9092C20.1976 62.0387 22.1841 64.0483 24.295 65.9256C25.4918 64.4195 26.6681 62.982 27.6893 61.7464C27.7719 61.646 27.8737 61.5625 27.9889 61.501C28.1041 61.4394 28.2305 61.4008 28.3608 61.3875C28.491 61.3742 28.6227 61.3864 28.7482 61.4234C28.8737 61.4604 28.9907 61.5214 29.0923 61.6031C29.194 61.6848 29.2783 61.7854 29.3406 61.8993C29.4029 62.0132 29.4419 62.1381 29.4554 62.2669C29.4689 62.3957 29.4565 62.5259 29.4191 62.6499C29.3817 62.774 29.3199 62.8896 29.2373 62.9901C28.0446 64.4397 26.6354 66.1638 25.2385 67.9445C25.0724 68.1522 24.8304 68.2871 24.5646 68.32L24.4339 68.3119Z" fill="#525D7D"/>
<path d="M18.5807 73.0443C18.3492 73.0451 18.125 72.965 17.9475 72.8182C14.6799 70.1491 12.1025 67.3307 9.36997 64.3387C8.66742 63.5756 7.96079 62.8003 7.22966 62.017C7.12531 61.9068 7.04808 61.7743 7.00398 61.6298C6.95988 61.4853 6.95009 61.3327 6.97538 61.1838C7.00068 61.035 7.06036 60.8939 7.1498 60.7716C7.23925 60.6493 7.35603 60.549 7.49107 60.4786C9.02415 59.6718 10.6417 59.0327 12.3149 58.5727C13.283 58.2779 14.2837 57.9751 15.554 57.4825C15.7999 57.3866 16.0743 57.3913 16.3167 57.4954C16.5591 57.5995 16.7498 57.7946 16.8468 58.0377C16.9437 58.2808 16.939 58.552 16.8337 58.7917C16.7284 59.0313 16.531 59.2198 16.2851 59.3157C14.9454 59.8406 13.8589 60.1676 12.9031 60.4624C11.773 60.7779 10.6674 61.1733 9.59462 61.6455L10.8486 63.0143C13.1656 65.6481 15.6398 68.1425 18.258 70.4843L18.3029 70.3995C19.2878 68.5471 20.1462 66.6316 20.8721 64.6658C20.9103 64.536 20.9751 64.4154 21.0623 64.3114C21.1495 64.2073 21.2574 64.122 21.3792 64.0608C21.5011 63.9995 21.6343 63.9636 21.7708 63.9552C21.9072 63.9468 22.0439 63.9662 22.1725 64.012C22.3011 64.0579 22.4188 64.1293 22.5184 64.2219C22.618 64.3145 22.6973 64.4263 22.7515 64.5503C22.8057 64.6744 22.8337 64.8081 22.8336 64.9432C22.8335 65.0784 22.8054 65.2121 22.751 65.3361C21.9978 67.3749 21.1081 69.3618 20.0879 71.2838L19.4752 72.4951C19.4082 72.6285 19.3118 72.7453 19.193 72.8368C19.0742 72.9284 18.9361 72.9924 18.789 73.0241C18.7203 73.0368 18.6506 73.0435 18.5807 73.0443Z" fill="#525D7D"/>
<path d="M17.6943 48.3569C17.5901 48.3586 17.4864 48.3422 17.388 48.3084C12.654 46.7821 6.96417 46.7458 1.24578 48.1913C1.05135 48.2413 0.846198 48.2319 0.657228 48.1646C0.468258 48.0972 0.304288 47.975 0.18682 47.8139C0.0693521 47.6528 0.00386921 47.4604 -0.00104445 47.2618C-0.00595812 47.0633 0.0499269 46.868 0.159285 46.7014C0.502388 46.163 0.846852 45.6367 1.19268 45.1226C2.9372 42.5619 4.54861 39.9151 6.02063 37.1923C6.10531 37.0313 6.23317 36.8964 6.39023 36.8024C6.54728 36.7083 6.72747 36.6589 6.91106 36.6593H7.02952C11.5989 36.7039 16.147 36.0404 20.5086 34.6929C20.7604 34.6126 21.0343 34.6345 21.2698 34.7537C21.5054 34.873 21.6833 35.0799 21.7646 35.3289C21.8458 35.5778 21.8237 35.8485 21.703 36.0814C21.5824 36.3142 21.3731 36.4902 21.1213 36.5705C16.7207 37.9351 12.1357 38.6295 7.52375 38.6298C6.20852 41.0929 4.66456 43.4752 3.16961 45.7525C8.43052 44.7753 13.5934 45.0055 18.0129 46.4349C18.2386 46.5076 18.4307 46.6575 18.5545 46.8577C18.6783 47.0579 18.7258 47.2953 18.6884 47.527C18.6509 47.7587 18.5311 47.9697 18.3503 48.1218C18.1696 48.2739 17.9399 48.3573 17.7025 48.3569H17.6943Z" fill="#525D7D"/>
<path d="M39.9797 79.0001C39.838 78.998 39.6985 78.9649 39.5713 78.9032C39.3889 78.82 39.2365 78.6838 39.1343 78.5129C39.0321 78.3419 38.9851 78.1443 38.9994 77.9462C39.1895 75.2041 39.0331 72.4493 38.5338 69.7454C38.0731 67.2357 37.2332 64.8087 36.0422 62.546C35.9182 62.3146 35.8922 62.0441 35.9699 61.7938C36.0477 61.5436 36.2228 61.3341 36.4568 61.2115C36.6908 61.0888 36.9645 61.0631 37.2176 61.14C37.4708 61.2169 37.6827 61.39 37.8067 61.6213C39.0905 64.0624 39.9926 66.6817 40.4821 69.3901C40.8704 71.4527 41.0632 73.5466 41.058 75.6446C43.0636 73.759 45.1426 71.8329 47.336 70.1007C46.5435 65.9057 46.3523 61.6212 46.7683 57.3735C46.8048 57.12 46.9392 56.8904 47.1434 56.733C47.3476 56.5755 47.6056 56.5024 47.8632 56.5291C48.1208 56.5557 48.3579 56.6801 48.5246 56.8759C48.6914 57.0718 48.7749 57.324 48.7574 57.5794C48.3464 61.7934 48.5583 66.044 49.3865 70.1976V70.3147C49.4206 70.4928 49.4043 70.6768 49.3394 70.8463C49.2746 71.0159 49.1636 71.1645 49.0189 71.2757C46.5848 73.2094 44.2509 75.2632 42.0261 77.4294L40.6455 78.7255C40.4665 78.8967 40.2287 78.9947 39.9797 79.0001Z" fill="#525D7D"/>
<path d="M12.9276 67.7101C12.7273 67.7091 12.5318 67.6486 12.3666 67.5366C12.2014 67.4245 12.074 67.266 12.001 67.0815C11.928 66.8971 11.9126 66.6952 11.9569 66.5021C12.0012 66.3089 12.1032 66.1333 12.2496 65.9981C13.3279 65.0129 14.1775 64.3143 14.9944 63.636C15.9298 62.8648 16.812 62.1379 17.9843 61.0316C18.1755 60.8506 18.4316 60.7521 18.6963 60.7578C18.9609 60.7635 19.2124 60.8729 19.3955 61.0619C19.5786 61.2509 19.6782 61.504 19.6725 61.7657C19.6667 62.0273 19.5561 62.276 19.3649 62.4569C18.1395 63.6077 17.2368 64.3587 16.277 65.1502C15.46 65.8124 14.6431 66.4988 13.6057 67.4477C13.4221 67.618 13.1793 67.712 12.9276 67.7101Z" fill="#525D7D"/>
<path d="M37.6147 31.4868C34.4615 31.4868 31.1775 30.1463 28.1222 27.6105C27.937 27.4373 27.8257 27.2008 27.8109 26.9492C27.7961 26.6976 27.879 26.45 28.0427 26.2567C28.2063 26.0635 28.4384 25.9393 28.6915 25.9095C28.9447 25.8797 29.1998 25.9465 29.4048 26.0963C31.2837 27.6549 34.2327 29.5123 37.6147 29.5123C43.4679 29.5123 47.2502 24.6669 47.2502 17.2171C47.2502 16.7084 47.2298 16.1835 47.193 15.6545C47.19 15.402 47.2848 15.158 47.4579 14.9723C47.631 14.7867 47.8693 14.6735 48.1241 14.656C48.3789 14.6384 48.6309 14.7178 48.8283 14.878C49.0258 15.0381 49.1539 15.2668 49.1863 15.5172C49.2272 16.0946 49.2476 16.664 49.2476 17.2171C49.2476 27.7478 42.9819 31.4868 37.6147 31.4868Z" fill="#525D7D"/>
<path d="M64.871 25.3374C64.7928 25.3373 64.7147 25.3292 64.6382 25.3131C58.5113 23.8514 53.3934 20.0397 50.5873 14.8431C50.5178 14.728 50.4727 14.6002 50.4547 14.4674C50.4367 14.3346 50.4461 14.1996 50.4825 14.0705C50.5189 13.9414 50.5814 13.821 50.6663 13.7165C50.7511 13.612 50.8566 13.5257 50.9762 13.4627C51.0959 13.3998 51.2272 13.3615 51.3623 13.3502C51.4973 13.3389 51.6333 13.3549 51.7619 13.3971C51.8906 13.4393 52.0092 13.507 52.1106 13.5959C52.212 13.6848 52.2941 13.7931 52.3518 13.9144C54.8883 18.6104 59.5366 22.0667 65.1038 23.3911C65.3442 23.4447 65.5559 23.5844 65.6982 23.7833C65.8405 23.9821 65.9032 24.226 65.8743 24.4679C65.8454 24.7098 65.7268 24.9325 65.5415 25.0931C65.3562 25.2537 65.1174 25.3407 64.871 25.3374Z" fill="#525D7D"/>
<path d="M65.8431 11.5159C65.6601 11.5166 65.4803 11.4673 65.3237 11.3737C65.1671 11.28 65.0396 11.1455 64.9552 10.9849C64.8708 10.8243 64.8328 10.6438 64.8453 10.4632C64.8578 10.2827 64.9204 10.109 65.0262 9.96135C67.4769 6.49689 69.8337 3.35951 72.2191 0.375557C72.2934 0.257927 72.3919 0.157048 72.5081 0.0794667C72.6244 0.00188578 72.7559 -0.0506642 72.894 -0.074775C73.0322 -0.0988859 73.1739 -0.094019 73.31 -0.0604887C73.4461 -0.0269584 73.5736 0.0344858 73.6841 0.119857C73.7946 0.205227 73.8858 0.312619 73.9516 0.435062C74.0175 0.557505 74.0565 0.692264 74.0663 0.830597C74.0761 0.968931 74.0563 1.10775 74.0083 1.23804C73.9603 1.36833 73.8851 1.48719 73.7876 1.5869C71.4267 4.53855 69.0985 7.64364 66.6641 11.0839C66.5731 11.2164 66.4508 11.3251 66.3077 11.4004C66.1647 11.4757 66.0052 11.5153 65.8431 11.5159Z" fill="#525D7D"/>
</g>
<defs>
<clipPath id="clip0">
<rect width="74" height="79" fill="white"/>
</clipPath>
</defs>
</svg>
