<svg width="50" height="50" viewBox="0 0 50 50" fill="none" xmlns="http://www.w3.org/2000/svg">
<rect x="7.00003" y="16" width="36" height="25" fill="#24B300"/>
<rect x="12" y="-1" width="26" height="38" fill="white"/>
<path d="M3.37061 50H46.6312C48.4892 50 50.0008 48.4768 50.0008 46.6045V44.6306C50.0008 43.9103 49.4173 43.3244 48.7001 43.3244H46.1959C46.7946 42.6012 47.1538 41.6793 47.1538 40.6959V29.9393C47.1538 29.5347 46.8259 29.2069 46.4213 29.2069C46.0168 29.2069 45.6889 29.5347 45.6889 29.9393V40.6959C45.6889 41.9757 44.7484 43.096 43.4923 43.3244H6.50955C5.25341 43.096 4.31298 41.9757 4.31298 40.6959V15.1642C4.31298 13.6912 5.51132 12.4928 6.98435 12.4928H10.9394V14.0629H7.249C6.50848 14.0629 5.90594 14.6654 5.90594 15.406V40.4159C5.90594 41.1565 6.50848 41.759 7.249 41.759H42.7527C43.4932 41.759 44.0958 41.1565 44.0958 40.4159V15.406C44.0958 14.6654 43.4932 14.0629 42.7527 14.0629H39.0624V12.4928H43.0175C44.4905 12.4928 45.6888 13.6912 45.6888 15.1642V26.5214C45.6888 26.926 46.0167 27.2538 46.4212 27.2538C46.8258 27.2538 47.1537 26.926 47.1537 26.5214V15.1642C47.1537 12.8835 45.2981 11.0279 43.0175 11.0279H39.0624V2.01434C39.0624 0.903606 38.1587 0 37.048 0H26.7099C26.3053 0 25.9775 0.327829 25.9775 0.732416C25.9775 1.137 26.3053 1.46483 26.7099 1.46483H37.048C37.3511 1.46483 37.5976 1.71131 37.5976 2.01434V35.7631C37.5976 36.0538 37.3611 36.2902 37.0703 36.2902H12.9316C12.6407 36.2902 12.4043 36.0537 12.4043 35.7631C12.4043 34.6995 12.4043 8.28382 12.4043 7.15043H16.0756C17.1863 7.15043 18.0899 6.24683 18.0899 5.13609V1.46483H23.292C23.6966 1.46483 24.0245 1.137 24.0245 0.732416C24.0245 0.327829 23.6966 0 23.292 0H17.3575C17.1607 0 16.972 0.0822259 16.8395 0.214451L11.1539 5.90005C11.0243 6.02984 10.9395 6.21665 10.9395 6.41802V11.0279H6.98445C4.7038 11.0279 2.84825 12.8835 2.84825 15.1642V40.6959C2.84825 41.6793 3.20733 42.6012 3.80615 43.3244H1.30168C0.584401 43.3244 0.00100708 43.9103 0.00100708 44.6306V46.6045C0.00100708 48.4768 1.51252 50 3.37061 50ZM16.625 2.50057V5.13599C16.625 5.43902 16.3785 5.6855 16.0755 5.6855H13.4401L16.625 2.50057ZM12.9316 37.7551H37.0703C38.1688 37.7551 39.0624 36.8615 39.0624 35.7631V15.5277H42.6309V40.2941H7.37087V15.5277H10.9395V35.7631C10.9395 36.8615 11.8331 37.7551 12.9316 37.7551ZM18.654 44.7893H31.3478V45.3812C31.3478 45.6256 31.1465 45.8322 30.9083 45.8322H19.0935C18.8554 45.8322 18.654 45.6256 18.654 45.3812V44.7893ZM1.46584 44.7893H17.1892V45.3812C17.1892 46.4375 18.0434 47.297 19.0935 47.297H30.9083C31.9584 47.297 32.8127 46.4375 32.8127 45.3812V44.7893H48.536V46.6046C48.536 47.6692 47.6815 48.5353 46.6312 48.5353H3.37061C2.32032 48.5353 1.46584 47.6693 1.46584 46.6046V44.7893Z" fill="#525D7D"/>
<path fill-rule="evenodd" clip-rule="evenodd" d="M25 24H23V25H20V27H17V31H20H22H23H25V25V24Z" fill="#FFD15C"/>
<path d="M20.8779 8.96167C17.6398 8.96167 15.0053 11.5961 15.0053 14.8342C15.0053 18.0723 17.6398 20.7067 20.8779 20.7067C24.0749 20.7067 26.6955 18.1459 26.7481 14.9313C26.8028 11.5781 24.0815 8.96167 20.8779 8.96167ZM22.7154 14.8341C22.7154 14.8495 22.7147 14.8646 22.7141 14.8799L22.7137 14.8924V14.8929C22.7137 14.8933 22.7136 14.8938 22.7136 14.8942C22.6824 15.8735 21.8781 16.6716 20.8778 16.6716C19.8645 16.6716 19.0402 15.8473 19.0402 14.8341C19.0402 13.8209 19.8645 12.9965 20.8778 12.9965C21.891 12.9965 22.7154 13.8209 22.7154 14.8341ZM20.8779 19.2417C18.4474 19.2417 16.4702 17.2645 16.4702 14.8341C16.4702 12.6533 18.0624 10.8372 20.1454 10.4873V11.6134C18.6757 11.9475 17.5754 13.2647 17.5754 14.834C17.5754 16.6549 19.0569 18.1364 20.8779 18.1364C21.4848 18.1364 22.0699 17.9719 22.5794 17.6646L23.3763 18.465C22.6463 18.9699 21.7814 19.2417 20.8779 19.2417ZM24.4282 17.4455L23.6483 16.6623L23.6364 16.6503C23.839 16.3437 23.9881 16.0063 24.0783 15.6501H25.2089C25.0877 16.3008 24.8219 16.9123 24.4282 17.4455ZM24.1162 14.1852C23.8615 12.9118 22.872 11.9004 21.6103 11.6135V10.4874C23.4827 10.8019 24.9586 12.3011 25.2378 14.1852H24.1162Z" fill="#525D7D"/>
<path d="M28.989 15.6501H33.6765C34.081 15.6501 34.4089 15.3223 34.4089 14.9177C34.4089 14.5131 34.081 14.1853 33.6765 14.1853H28.989C28.5844 14.1853 28.2565 14.5131 28.2565 14.9177C28.2565 15.3223 28.5844 15.6501 28.989 15.6501Z" fill="#525D7D"/>
<path d="M28.989 18.6606H33.6765C34.081 18.6606 34.4089 18.3328 34.4089 17.9282C34.4089 17.5236 34.081 17.1958 33.6765 17.1958H28.989C28.5844 17.1958 28.2565 17.5236 28.2565 17.9282C28.2565 18.3328 28.5844 18.6606 28.989 18.6606Z" fill="#525D7D"/>
<path d="M28.989 12.6394H33.6765C34.081 12.6394 34.4089 12.3116 34.4089 11.907C34.4089 11.5024 34.081 11.1746 33.6765 11.1746H28.989C28.5844 11.1746 28.2565 11.5024 28.2565 11.907C28.2565 12.3116 28.5844 12.6394 28.989 12.6394Z" fill="#525D7D"/>
<path d="M28.989 28.0234H33.6765C34.081 28.0234 34.4089 27.6956 34.4089 27.291C34.4089 26.8864 34.081 26.5586 33.6765 26.5586H28.989C28.5844 26.5586 28.2565 26.8864 28.2565 27.291C28.2565 27.6956 28.5844 28.0234 28.989 28.0234Z" fill="#525D7D"/>
<path d="M28.989 31.0339H33.6765C34.081 31.0339 34.4089 30.7061 34.4089 30.3015C34.4089 29.8969 34.081 29.5691 33.6765 29.5691H28.989C28.5844 29.5691 28.2565 29.8969 28.2565 30.3015C28.2565 30.7061 28.5844 31.0339 28.989 31.0339Z" fill="#525D7D"/>
<path d="M28.989 25.0127H33.6765C34.081 25.0127 34.4089 24.6849 34.4089 24.2803C34.4089 23.8757 34.081 23.5479 33.6765 23.5479H28.989C28.5844 23.5479 28.2565 23.8757 28.2565 24.2803C28.2565 24.6849 28.5844 25.0127 28.989 25.0127Z" fill="#525D7D"/>
<path d="M22.962 22.5952C22.3088 22.5952 21.7774 23.1266 21.7774 23.7799V24.4739H20.0588C19.4056 24.4739 18.8742 25.0053 18.8742 25.6586V26.2849H17.1509C16.4977 26.2849 15.9662 26.8162 15.9662 27.4695V30.8995C15.9662 31.4989 16.4538 31.9865 17.0533 31.9865H25.063C25.6624 31.9865 26.15 31.4989 26.15 30.8995V23.7799C26.15 23.1267 25.6187 22.5952 24.9654 22.5952H22.962ZM18.8742 30.5217H17.4312V27.7497H18.8742V30.5217ZM21.7774 30.5217H20.339C20.339 29.6304 20.339 26.8475 20.339 25.9388H21.7774V30.5217ZM24.6852 30.5217H23.2468C23.2468 25.7765 23.2421 24.2762 23.2421 24.0601H24.6851V30.5217H24.6852Z" fill="#525D7D"/>
</svg>
