<svg width="56" height="52" viewBox="0 0 56 52" fill="none" xmlns="http://www.w3.org/2000/svg">
<path d="M42.1759 46.1278L40.8154 45.3424L52.4386 25.2105C53.3272 23.666 52.7986 21.6939 51.2571 20.8005L20.9343 3.29357C19.3899 2.40532 17.4176 2.93356 16.5243 4.47543L4.90119 24.6073L3.54073 23.8218C3.32251 23.6958 3.04302 23.7709 2.91704 23.9892C1.42943 26.5759 2.31885 29.879 4.90436 31.3687L34.9583 48.7203C37.5401 50.2051 40.8373 49.3219 42.331 46.7448C42.4545 46.531 42.386 46.2577 42.1759 46.1278ZM17.3152 4.93205C17.9545 3.82477 19.3706 3.44531 20.4777 4.08445L50.8005 21.5913C51.9078 22.2306 52.287 23.6466 51.6477 24.7539L40.0246 44.8858L37.9287 43.6758L48.182 25.9165C48.9853 24.5252 48.5086 22.7462 47.1176 21.9431L22.0145 7.44985C20.6235 6.64673 18.8444 7.12341 18.0412 8.51471L7.78774 26.2742L5.69192 25.0642C5.69207 25.0639 17.3152 4.93205 17.3152 4.93205ZM8.57877 26.7305L18.8321 8.97133C19.383 8.01698 20.6038 7.68988 21.5579 8.24073L46.6607 22.7338C47.615 23.2848 47.9421 24.5056 47.3911 25.4599L37.1377 43.2194L8.57862 26.7308L8.57877 26.7305ZM35.4149 47.9294L5.36097 30.5778C3.37287 29.4251 2.57474 26.9581 3.51115 24.8596L41.3038 46.6792C39.9515 48.5435 37.4081 49.084 35.4149 47.9294Z" fill="#C3E5FE"/>
<path d="M11.7876 30.3235L9.11448 28.7802C8.43001 28.385 7.55429 28.6196 7.15912 29.3041C6.76394 29.9886 6.99859 30.8643 7.68306 31.2595L10.3523 32.8006C11.0368 33.1957 11.9125 32.9611 12.3077 32.2766C12.7029 31.5922 12.4682 30.7164 11.7837 30.3213L11.7876 30.3235ZM10.8128 32.0119L8.13967 30.4686C7.89164 30.3254 7.80679 30.0087 7.95 29.7607C8.0932 29.5127 8.40983 29.4278 8.65787 29.571L11.3271 31.1121C11.5752 31.2553 11.66 31.572 11.5168 31.82C11.3736 32.068 11.057 32.1529 10.8089 32.0097L10.8128 32.0119Z" fill="#C3E5FE"/>
<path d="M22.4258 16.8563L18.8906 14.8153C18.6724 14.6893 18.3928 14.764 18.2666 14.9825L12.2484 25.4063C12.1224 25.6245 12.1975 25.904 12.4158 26.03L15.9509 28.071C16.1692 28.197 16.4488 28.1223 16.5747 27.9041L22.5929 17.4803C22.7191 17.2618 22.644 16.9823 22.4258 16.8563ZM16.0122 27.0519L13.2677 25.4674L18.8293 15.8344L21.5738 17.419L16.0122 27.0519Z" fill="#C3E5FE"/>
<path d="M30.7822 17.6792L27.2509 15.6403C27.0327 15.5144 26.7533 15.5892 26.6274 15.8074L18.8648 29.2526C18.7388 29.4709 18.8136 29.7502 19.0318 29.8762L22.5632 31.915C22.7816 32.0411 23.061 31.9663 23.187 31.7481L30.9496 18.3029C31.0756 18.0846 31.0007 17.8053 30.7822 17.6792ZM22.6245 30.8959L19.884 29.3137L27.1899 16.6596L29.9303 18.2418L22.6245 30.8959Z" fill="#C3E5FE"/>
<path d="M33.9884 27.4232L30.4571 25.3844C30.2386 25.2583 29.9591 25.3334 29.8332 25.5516L25.4952 33.0651C25.3692 33.2833 25.4441 33.5626 25.6626 33.6888L29.1978 35.7298C29.416 35.8558 29.6956 35.7811 29.8216 35.5629L34.1595 28.0494C34.2855 27.8312 34.2105 27.5514 33.9923 27.4254C33.991 27.4247 33.9895 27.4238 33.9884 27.4232ZM29.255 34.7083L26.5145 33.1261L30.3958 26.4035L33.1404 27.9881L29.255 34.7083Z" fill="#C3E5FE"/>
<path d="M43.0131 27.0975L39.4779 25.0565C39.2595 24.9304 38.9801 25.0052 38.8541 25.2234L32.1235 36.8813C31.9975 37.0995 32.0724 37.3788 32.2908 37.505L35.826 39.546C36.0442 39.672 36.3236 39.5971 36.4496 39.3789L43.1802 27.7211C43.3064 27.503 43.2313 27.2235 43.0131 27.0975ZM35.8847 38.5308L33.1404 36.9464L39.4166 26.0756L42.1609 27.66L35.8847 38.5308Z" fill="#C3E5FE"/>
</svg>
