<svg width="95" height="105" viewBox="0 0 95 105" fill="none" xmlns="http://www.w3.org/2000/svg">
<g clip-path="url(#clip0)">
<path d="M61.8005 64.2325C61.658 62.9816 61.2925 61.7667 60.7217 60.646C57.8843 55.4389 50.4056 57.3439 49.1777 62.7695C48.4778 65.8607 50.6229 68.6801 53.1495 69.6275C55.7039 70.9687 58.9935 70.4048 60.6257 67.7809C61.414 66.7705 61.8293 65.5164 61.8005 64.2325Z" fill="#FFD15C"/>
<path d="M19.5634 20.691C19.5331 20.6555 19.4978 20.6275 19.4674 20.5945C18.2395 17.8665 16.2334 15.395 13.6815 13.9904C12.868 13.0455 12.0519 12.1006 11.2434 11.1506C9.26756 8.82651 5.39682 11.3056 6.23059 14.0869C7.03002 16.7838 8.40436 19.2732 10.258 21.3819C12.0468 23.4139 14.6694 25.7 17.4866 25.7406C20.1698 25.7762 21.1805 22.5427 19.5634 20.691Z" fill="#FFD15C"/>
<path d="M25.981 15.7862C25.1472 14.2114 24.2856 12.6594 23.4165 11.1126C22.7747 8.4887 21.3548 6.34491 19.4194 4.41195C16.6402 1.63823 11.6047 5.27048 13.8609 8.73001C14.773 10.1169 15.6952 11.4885 16.625 12.8576C17.7325 15.3369 19.3108 17.5751 21.2714 19.4464C23.7727 21.8036 27.598 18.819 25.981 15.7862Z" fill="#FFD15C"/>
<path d="M70.7623 63.0385C70.679 62.4874 69.8502 62.5585 69.7214 63.0385C68.0488 69.2159 64.0669 73.7067 58.6852 76.5896C55.906 76.8944 53.2404 77.2551 50.6001 75.7844C48.1064 74.395 45.0012 71.5146 44.3493 68.685C44.2558 68.2837 43.5913 68.3599 43.6191 68.7841C44.0082 72.9929 44.5135 76.3051 48.3211 78.8223C50.9185 80.5368 54.4986 81.4919 57.6417 80.8264C65.9643 79.7697 71.965 71.2886 70.7623 63.0385Z" fill="#C3E5FE"/>
<path d="M82.8294 58.7687C82.7258 58.2303 81.9223 58.276 81.7884 58.7687C79.1254 68.6571 78.7161 79.6529 69.3702 85.4391C66.1665 86.7803 63.0865 88.1595 59.4482 88.4059C54.7066 88.7527 49.968 87.6929 45.8198 85.3578C37.2976 80.5318 33.5102 71.7636 31.5041 62.5178C31.3828 61.9616 30.4935 62.081 30.5086 62.655C30.976 73.628 34.3314 83.4833 44.1522 89.4625C52.6997 94.662 66.7122 95.7263 74.4714 88.4084C74.7225 88.1716 74.9109 87.8757 75.0197 87.5473C83.2589 81.2608 84.7294 68.6012 82.8294 58.7687Z" fill="#C3E5FE"/>
<path d="M56.2723 105C47.2701 105 37.9343 100.88 30.6603 93.6942C22.8733 86.0029 18.5831 75.9139 18.5831 65.2966C18.5831 46.6197 30.1777 30.4193 46.7749 25.9006C50.1041 24.9941 53.5382 24.5355 56.9874 24.5366C79.3705 24.5366 95.0025 40.5185 95.0025 63.3992C95.0025 86.3433 77.6271 105 56.2723 105ZM56.9874 27.1503C53.7671 27.1486 50.5607 27.5756 47.452 28.4203C31.9791 32.6317 21.1754 47.8008 21.1754 65.3042C21.1754 82.8076 36.1834 102.404 56.2723 102.404C76.1996 102.404 92.4026 84.9158 92.4026 63.422C92.4026 52.4999 88.825 43.2592 82.0562 36.7034C75.7145 30.5413 66.8082 27.1503 56.9874 27.1503Z" fill="#525D7D"/>
<path d="M56.2546 90.4762C48.5839 90.4762 41.565 86.7855 36.4891 80.0798C32.3379 74.5908 29.7557 67.3618 29.7557 61.2149C29.7557 48.1795 41.2113 36.7417 54.2637 36.7417C55.074 36.7425 55.8836 36.7866 56.6892 36.8738C62.8187 37.5342 68.2913 38.3699 73.1879 41.9539C79.2517 46.3913 82.8824 53.8565 82.8824 61.9262C82.8824 69.7571 79.9415 77.0495 74.6003 82.4674C69.585 87.5577 62.8945 90.4762 56.2546 90.4762ZM54.2788 39.3478C42.6009 39.3478 32.3581 49.5663 32.3581 61.2149C32.3581 70.7833 40.3472 87.8853 56.2647 87.8853C70.6461 87.8853 80.3053 74.4689 80.3053 61.9363C80.3053 54.6972 77.0814 48.0195 71.6795 44.0697C67.2933 40.8616 62.3867 40.1174 56.429 39.4748C55.715 39.3944 54.9973 39.352 54.2788 39.3478Z" fill="#525D7D"/>
<path d="M56.3001 77.8114C47.2802 77.8114 42.2902 68.7003 42.2902 62.401C42.2902 55.4794 48.3692 49.4087 55.2971 49.4087C55.7292 49.4087 56.161 49.4316 56.5907 49.4773C59.7767 49.8227 62.6242 50.2596 65.2241 52.1595C68.4531 54.5192 70.3783 58.4817 70.3783 62.7591C70.3657 70.0287 64.7087 77.8114 56.3001 77.8114ZM55.2895 52.0122C49.731 52.0122 44.8723 56.8688 44.8723 62.401C44.8723 66.9984 48.6875 75.2053 56.2926 75.2053C61.8511 75.2053 67.781 70.204 67.781 62.7591C67.781 59.3123 66.2524 56.1372 63.693 54.2652C61.6085 52.7412 59.2158 52.3805 56.3077 52.0681C55.9695 52.0318 55.6296 52.0131 55.2895 52.0122Z" fill="#525D7D"/>
<path d="M57.2223 67.001C57.0409 67.0017 56.8613 66.9638 56.6954 66.8898C56.5295 66.8158 56.3811 66.7074 56.2597 66.5718C38.2198 46.4217 24.4019 28.8675 12.7669 11.3285C12.6653 11.1865 12.5931 11.0253 12.5548 10.8546C12.5165 10.6839 12.5128 10.5072 12.5438 10.335C12.5749 10.1629 12.6402 9.99875 12.7357 9.85248C12.8312 9.70622 12.9551 9.58079 13.0999 9.48369C13.2447 9.38659 13.4075 9.3198 13.5785 9.28731C13.7495 9.25482 13.9253 9.25729 14.0954 9.29458C14.2654 9.33186 14.4263 9.4032 14.5683 9.50434C14.7103 9.60547 14.8307 9.73433 14.9221 9.88323C26.4863 27.3155 40.231 44.7757 58.1825 64.8293C58.3501 65.016 58.4602 65.2476 58.4995 65.496C58.5389 65.7444 58.5058 65.9989 58.4042 66.2287C58.3025 66.4586 58.1368 66.6538 57.9271 66.7909C57.7173 66.928 57.4725 67.001 57.2223 67.001Z" fill="#525D7D"/>
<path d="M15.056 28.1359C14.2681 28.1365 13.4809 28.089 12.6987 27.9937C12.5256 27.9731 12.3585 27.9174 12.2074 27.8301C12.0563 27.7428 11.9243 27.6256 11.8194 27.4857C8.61318 23.1473 5.58379 18.6159 2.65546 14.2343C1.84358 13.0202 1.03339 11.8111 0.224878 10.6071C0.0832043 10.3966 0.00587522 10.149 0.00241056 9.89487C-0.0010541 9.64071 0.0694983 9.39108 0.205379 9.17673C0.341261 8.96237 0.536535 8.79265 0.767157 8.68846C0.997779 8.58428 1.25368 8.55018 1.50334 8.59036C5.17195 9.19235 8.84562 9.26855 12.7341 9.35237L13.919 9.37777C14.0934 9.37504 14.2665 9.40769 14.428 9.47379C14.5894 9.53988 14.736 9.63805 14.8589 9.76242C14.9818 9.88679 15.0784 10.0348 15.143 10.1976C15.2077 10.3604 15.239 10.5346 15.2351 10.7099C15.2311 10.8851 15.1921 11.0578 15.1203 11.2175C15.0484 11.3772 14.9453 11.5207 14.817 11.6394C14.6887 11.7581 14.5379 11.8496 14.3736 11.9083C14.2093 11.9671 14.035 11.9919 13.8609 11.9813L12.681 11.9559C9.82089 11.8949 6.88751 11.834 3.97435 11.5419L4.8056 12.784C7.61265 16.9852 10.5157 21.3261 13.5603 25.4841C14.0504 25.5273 14.5507 25.5502 15.056 25.5502C18.0576 25.5502 20.9834 24.8034 23.8132 24.0795C24.1418 24.0072 24.4855 24.0662 24.7716 24.2439C25.0578 24.4217 25.264 24.7044 25.3467 25.0322C25.4293 25.36 25.382 25.7073 25.2146 26.0006C25.0473 26.294 24.7731 26.5105 24.4499 26.6043C21.6075 27.313 18.3835 28.1359 15.056 28.1359Z" fill="#525D7D"/>
<path d="M23.6616 26.7467C23.4534 26.7466 23.2483 26.6961 23.0636 26.5994C22.8789 26.5027 22.7201 26.3627 22.6006 26.1913C22.4812 26.0199 22.4045 25.822 22.3772 25.6145C22.3499 25.407 22.3727 25.1959 22.4438 24.9991C23.7905 21.2856 25.4428 17.6838 27.1761 14.0312C23.5656 10.8206 19.849 7.5186 16.4406 3.91175C15.8393 6.19778 15.3137 8.51175 14.8514 10.9121C14.7843 11.2513 14.5861 11.5498 14.3001 11.742C14.0141 11.9342 13.664 12.0044 13.3266 11.937C12.9892 11.8696 12.6922 11.6703 12.501 11.3828C12.3098 11.0953 12.2401 10.7433 12.3071 10.4041C12.9387 7.14267 13.6765 4.05399 14.581 0.932284C14.6445 0.70819 14.7667 0.505361 14.9349 0.345004C15.103 0.184647 15.311 0.0726538 15.5369 0.0207341C15.7628 -0.0311857 15.9985 -0.0211256 16.2193 0.0498645C16.44 0.120855 16.6378 0.250166 16.7918 0.424277C20.5286 4.6382 24.8137 8.43809 28.9599 12.1084L29.637 12.7104C29.8483 12.8981 29.9929 13.1499 30.049 13.4277C30.1051 13.7055 30.0695 13.9941 29.9478 14.2497C28.0907 18.1486 26.3069 21.9714 24.8946 25.8729C24.8058 26.1299 24.6391 26.3524 24.4179 26.5092C24.1967 26.6659 23.9322 26.749 23.6616 26.7467Z" fill="#525D7D"/>
</g>
<defs>
<clipPath id="clip0">
<rect width="95" height="105" fill="white"/>
</clipPath>
</defs>
</svg>
